<svg xmlns="http://www.w3.org/2000/svg" viewBox="0 0 23.51 23.68"><defs><style>.cls-1{fill:#666;}.cls-2{fill:#666;}</style></defs><title>Asset 4</title><g id="Layer_2" data-name="Layer 2"><g id="Layer_2-2" data-name="Layer 2"><polygon class="cls-1" points="3.74 5.24 19.81 5.24 19.81 0 4.08 0 3.74 5.24"/><path class="cls-1" d="M3.52,23.68a.34.34,0,0,1-.34-.34V20.16a.34.34,0,1,1,.69,0v3.18A.34.34,0,0,1,3.52,23.68Z"/><path class="cls-1" d="M20,23.64a.34.34,0,0,1-.34-.34V20.16a.34.34,0,1,1,.69,0v3.14A.34.34,0,0,1,20,23.64Z"/><path class="cls-2" d="M19.34,5.93l3.18,8.47H1L4.21,5.93H19.34m.47-.69H3.74L0,15.08H23.51l-3.7-9.84Z"/><path class="cls-2" d="M22.82,15.77v3.7H.69v-3.7H22.82m.69-.69H0v5.07H23.51V15.08Z"/></g></g></svg>