<svg xmlns="http://www.w3.org/2000/svg" viewBox="0 0 13.01 23.62"><defs><style>.cls-1{fill:#c6c6c6;}.cls-2{fill:#b5b5b5;}.cls-3,.cls-7{fill:#fcfdff;}.cls-3{opacity:0.6;}.cls-4{fill:#8e8e8e;}.cls-5{fill:#eaeaea;}.cls-6{fill:#fff;}</style></defs><title>Asset 2</title><g id="Layer_2" data-name="Layer 2"><g id="Layer_4" data-name="Layer 4"><rect class="cls-1" x="3.1" y="8.93" width="4.72" height="14.65"/><rect class="cls-2" x="1.43" y="12.48" width="1.67" height="11.11"/><rect class="cls-3" x="3.77" y="10.72" width="0.38" height="1.09"/><rect class="cls-3" x="3.77" y="12.51" width="0.38" height="1.09"/><rect class="cls-3" x="2.26" y="13.22" width="0.38" height="1.09"/><rect class="cls-3" x="2.26" y="15.02" width="0.38" height="1.09"/><rect class="cls-3" x="2.26" y="16.59" width="0.38" height="1.09"/><rect class="cls-3" x="2.26" y="18.39" width="0.38" height="1.09"/><rect class="cls-3" x="3.77" y="14.31" width="0.38" height="1.09"/><rect class="cls-3" x="3.77" y="16.1" width="0.38" height="1.09"/><rect class="cls-3" x="3.77" y="17.9" width="0.38" height="1.09"/><rect class="cls-3" x="3.77" y="19.69" width="0.38" height="1.09"/><path class="cls-4" d="M6.58,3.53l0,0A.65.65,0,0,0,6,3.15h0v0A.78.78,0,0,0,4.4,2.87v0H4.32a.79.79,0,0,0-.76.62,0,0,0,1,1-.06,0,.85.85,0,0,1,.82-.66h0A.84.84,0,0,1,6,3.09a.71.71,0,0,1,.62.39,0,0,0,0,1,0,0Z"/><line class="cls-4" y1="23.59" x2="12.24" y2="23.59"/><rect class="cls-4" y="23.56" width="12.24" height="0.06"/><path class="cls-5" d="M7.41,3.06h0a.12.12,0,0,1-.12-.12V.15A.12.12,0,0,1,7.41,0h0a.12.12,0,0,1,.12.12V2.93A.12.12,0,0,1,7.41,3.06Z"/><path class="cls-4" d="M7.41,3.09a.15.15,0,0,1-.15-.15V.15a.15.15,0,0,1,.31,0V2.93A.15.15,0,0,1,7.41,3.09Zm0-3a.09.09,0,0,0-.09.09V2.93a.09.09,0,0,0,.19,0V.15A.09.09,0,0,0,7.41.06Z"/><rect class="cls-5" x="6.26" y="2.78" width="2.4" height="3.43"/><path class="cls-4" d="M8.69,6.25H6.23V2.75H8.69Zm-2.4-.06H8.63V2.81H6.29Z"/><rect class="cls-5" x="5.53" y="4.53" width="3.78" height="2.83"/><path class="cls-4" d="M9.33,7.39H5.5V4.5H9.33ZM5.56,7.33H9.27V4.56H5.56Z"/><rect class="cls-5" x="4.18" y="6.4" width="6.46" height="17.19"/><path class="cls-4" d="M10.68,23.62H4.15V6.37h6.52Zm-6.46-.06h6.4V6.43H4.21Z"/><rect class="cls-6" x="4.84" y="6.98" width="0.36" height="1.66" rx="0.18" ry="0.18"/><path class="cls-4" d="M5.14,8.67H4.9a.09.09,0,0,1-.09-.09V7a.09.09,0,0,1,.09-.09h.24A.09.09,0,0,1,5.23,7V8.57A.09.09,0,0,1,5.14,8.67ZM4.9,7a0,0,0,0,0,0,0V8.57a0,0,0,0,0,0,0h.24a0,0,0,0,0,0,0V7a0,0,0,0,0,0,0Z"/><rect class="cls-6" x="5.64" y="6.98" width="0.36" height="1.66" rx="0.18" ry="0.18"/><path class="cls-4" d="M5.94,8.67H5.7a.09.09,0,0,1-.09-.09V7a.09.09,0,0,1,.09-.09h.24A.09.09,0,0,1,6,7V8.57A.09.09,0,0,1,5.94,8.67ZM5.7,7a0,0,0,0,0,0,0V8.57a0,0,0,0,0,0,0h.24a0,0,0,0,0,0,0V7a0,0,0,0,0,0,0Z"/><rect class="cls-6" x="6.44" y="6.98" width="0.36" height="1.66" rx="0.18" ry="0.18"/><path class="cls-4" d="M6.74,8.67H6.5a.09.09,0,0,1-.09-.09V7a.09.09,0,0,1,.09-.09h.24A.09.09,0,0,1,6.83,7V8.57A.09.09,0,0,1,6.74,8.67ZM6.5,7a0,0,0,0,0,0,0V8.57a0,0,0,0,0,0,0h.24a0,0,0,0,0,0,0V7a0,0,0,0,0,0,0Z"/><rect class="cls-6" x="7.23" y="6.98" width="0.36" height="1.66" rx="0.18" ry="0.18"/><path class="cls-4" d="M7.54,8.67H7.29a.09.09,0,0,1-.09-.09V7a.09.09,0,0,1,.09-.09h.24A.09.09,0,0,1,7.63,7V8.57A.09.09,0,0,1,7.54,8.67ZM7.29,7a0,0,0,0,0,0,0V8.57a0,0,0,0,0,0,0h.24a0,0,0,0,0,0,0V7a0,0,0,0,0,0,0Z"/><rect class="cls-6" x="8.03" y="6.98" width="0.36" height="1.66" rx="0.18" ry="0.18"/><path class="cls-4" d="M8.34,8.67H8.09A.09.09,0,0,1,8,8.57V7a.09.09,0,0,1,.09-.09h.24A.09.09,0,0,1,8.43,7V8.57A.09.09,0,0,1,8.34,8.67ZM8.09,7a0,0,0,0,0,0,0V8.57a0,0,0,0,0,0,0h.24a0,0,0,0,0,0,0V7a0,0,0,0,0,0,0Z"/><rect class="cls-6" x="8.83" y="6.98" width="0.36" height="1.66" rx="0.18" ry="0.18"/><path class="cls-4" d="M9.13,8.67H8.89a.09.09,0,0,1-.09-.09V7a.09.09,0,0,1,.09-.09h.24A.09.09,0,0,1,9.23,7V8.57A.09.09,0,0,1,9.13,8.67ZM8.89,7a0,0,0,0,0,0,0V8.57a0,0,0,0,0,0,0h.24a0,0,0,0,0,0,0V7a0,0,0,0,0,0,0Z"/><rect class="cls-6" x="9.63" y="6.98" width="0.36" height="1.66" rx="0.18" ry="0.18"/><path class="cls-4" d="M9.93,8.67H9.69a.09.09,0,0,1-.09-.09V7a.09.09,0,0,1,.09-.09h.24A.09.09,0,0,1,10,7V8.57A.09.09,0,0,1,9.93,8.67ZM9.69,7a0,0,0,0,0,0,0V8.57a0,0,0,0,0,0,0h.24a0,0,0,0,0,0,0V7a0,0,0,0,0,0,0Z"/><path class="cls-6" d="M7.35,21.59h.06a1,1,0,0,1,1,1v1a0,0,0,0,1,0,0h-2a0,0,0,0,1,0,0v-1A1,1,0,0,1,7.35,21.59Z"/><path class="cls-4" d="M8.41,23.62H6.35V21.9a.34.34,0,0,1,.34-.34H8.07a.34.34,0,0,1,.34.34Zm-2-.06H8.35V21.9a.28.28,0,0,0-.28-.28H6.69a.28.28,0,0,0-.28.28Z"/><path class="cls-6" d="M5.4,22.32h0a.42.42,0,0,1,.42.42v.85a0,0,0,0,1,0,0H5a0,0,0,0,1,0,0v-.85A.42.42,0,0,1,5.4,22.32Z"/><path class="cls-4" d="M5.87,23.62H5V22.4a.11.11,0,0,1,.11-.11h.7a.11.11,0,0,1,.11.11ZM5,23.56h.8V22.4a.05.05,0,0,0-.05-.05h-.7A.05.05,0,0,0,5,22.4Z"/><path class="cls-6" d="M9.27,22.32h0a.42.42,0,0,1,.42.42v.85a0,0,0,0,1,0,0H8.85a0,0,0,0,1,0,0v-.85A.42.42,0,0,1,9.27,22.32Z"/><path class="cls-4" d="M9.74,23.62H8.82V22.4a.11.11,0,0,1,.11-.11h.7a.11.11,0,0,1,.11.11Zm-.86-.06h.8V22.4a.05.05,0,0,0-.05-.05h-.7a.05.05,0,0,0-.05.05Z"/><line class="cls-4" x1="6.69" y1="21.59" x2="6.69" y2="23.59"/><rect class="cls-4" x="6.66" y="21.59" width="0.06" height="2"/><line class="cls-4" x1="5.21" y1="22.32" x2="5.21" y2="23.59"/><rect class="cls-4" x="5.18" y="22.32" width="0.06" height="1.27"/><line class="cls-4" x1="9.1" y1="22.32" x2="9.1" y2="23.59"/><rect class="cls-4" x="9.07" y="22.32" width="0.06" height="1.27"/><rect class="cls-6" x="5.86" y="4.94" width="0.8" height="1.08" rx="0.39" ry="0.39"/><path class="cls-4" d="M6.58,6H5.95a.11.11,0,0,1-.11-.11V5a.11.11,0,0,1,.11-.11h.63A.11.11,0,0,1,6.69,5v.92A.11.11,0,0,1,6.58,6ZM5.95,5A.05.05,0,0,0,5.89,5v.92A.05.05,0,0,0,5.95,6h.63a.05.05,0,0,0,.05-.05V5A.05.05,0,0,0,6.58,5Z"/><line class="cls-4" x1="6.08" y1="4.94" x2="6.08" y2="6.02"/><rect class="cls-4" x="6.05" y="4.94" width="0.06" height="1.08"/><rect class="cls-6" x="7.02" y="4.94" width="0.8" height="1.08" rx="0.39" ry="0.39"/><path class="cls-4" d="M7.73,6H7.1A.11.11,0,0,1,7,5.93V5a.11.11,0,0,1,.11-.11h.63A.11.11,0,0,1,7.85,5v.92A.11.11,0,0,1,7.73,6ZM7.1,5A.05.05,0,0,0,7,5v.92A.05.05,0,0,0,7.1,6h.63a.05.05,0,0,0,.05-.05V5A.05.05,0,0,0,7.73,5Z"/><line class="cls-4" x1="7.23" y1="4.94" x2="7.23" y2="6.02"/><rect class="cls-4" x="7.2" y="4.94" width="0.06" height="1.08"/><rect class="cls-6" x="8.11" y="4.94" width="0.8" height="1.08" rx="0.39" ry="0.39"/><path class="cls-4" d="M8.82,6H8.19a.11.11,0,0,1-.11-.11V5a.11.11,0,0,1,.11-.11h.63A.11.11,0,0,1,8.93,5v.92A.11.11,0,0,1,8.82,6ZM8.19,5A.05.05,0,0,0,8.14,5v.92A.05.05,0,0,0,8.19,6h.63a.05.05,0,0,0,.05-.05V5A.05.05,0,0,0,8.82,5Z"/><line class="cls-4" x1="8.32" y1="4.94" x2="8.32" y2="6.02"/><rect class="cls-4" x="8.29" y="4.94" width="0.06" height="1.08"/><path class="cls-5" d="M8.68,3.3H6.23a.08.08,0,0,1-.08-.08h0a.08.08,0,0,1,.08-.08H8.68a.08.08,0,0,1,.08.08h0A.08.08,0,0,1,8.68,3.3Z"/><path class="cls-4" d="M8.68,3.33H6.23a.11.11,0,1,1,0-.22H8.68a.11.11,0,1,1,0,.22ZM6.23,3.17a.05.05,0,0,0,0,.1H8.68a.05.05,0,0,0,0-.1Z"/><path class="cls-5" d="M8.68,3.63H6.23a.08.08,0,0,1-.08-.08h0a.08.08,0,0,1,.08-.08H8.68a.08.08,0,0,1,.08.08h0A.08.08,0,0,1,8.68,3.63Z"/><path class="cls-4" d="M8.68,3.66H6.23a.11.11,0,0,1,0-.22H8.68a.11.11,0,0,1,0,.22ZM6.23,3.5a.05.05,0,0,0,0,.1H8.68a.05.05,0,0,0,0-.1Z"/><rect class="cls-7" x="4.73" y="9.88" width="0.8" height="1.08" rx="0.39" ry="0.39"/><path class="cls-4" d="M5.44,11H4.81a.11.11,0,0,1-.11-.11V10a.11.11,0,0,1,.11-.11h.63a.11.11,0,0,1,.11.11v.92A.11.11,0,0,1,5.44,11ZM4.81,9.91a.05.05,0,0,0-.05.05v.92a.05.05,0,0,0,.05.05h.63a.05.05,0,0,0,.05-.05V10a.05.05,0,0,0-.05-.05Z"/><line class="cls-4" x1="4.94" y1="9.88" x2="4.94" y2="10.96"/><rect class="cls-4" x="4.91" y="9.88" width="0.06" height="1.08"/><rect class="cls-7" x="5.82" y="9.88" width="0.8" height="1.08" rx="0.39" ry="0.39"/><path class="cls-4" d="M6.53,11H5.9a.11.11,0,0,1-.11-.11V10a.11.11,0,0,1,.11-.11h.63a.11.11,0,0,1,.11.11v.92A.11.11,0,0,1,6.53,11ZM5.9,9.91a.05.05,0,0,0-.05.05v.92a.05.05,0,0,0,.05.05h.63a.05.05,0,0,0,.05-.05V10a.05.05,0,0,0-.05-.05Z"/><line class="cls-4" x1="6.03" y1="9.88" x2="6.03" y2="10.96"/><rect class="cls-4" x="6" y="9.88" width="0.06" height="1.08"/><rect class="cls-7" x="6.91" y="9.88" width="0.8" height="1.08" rx="0.39" ry="0.39"/><path class="cls-4" d="M7.62,11H7a.11.11,0,0,1-.11-.11V10A.11.11,0,0,1,7,9.85h.63a.11.11,0,0,1,.11.11v.92A.11.11,0,0,1,7.62,11ZM7,9.91a.05.05,0,0,0-.05.05v.92a.05.05,0,0,0,.05.05h.63a.05.05,0,0,0,.05-.05V10a.05.05,0,0,0-.05-.05Z"/><line class="cls-4" x1="7.12" y1="9.88" x2="7.12" y2="10.96"/><rect class="cls-4" x="7.09" y="9.88" width="0.06" height="1.08"/><rect class="cls-7" x="8" y="9.88" width="0.8" height="1.08" rx="0.39" ry="0.39"/><path class="cls-4" d="M8.71,11H8.08A.11.11,0,0,1,8,10.88V10a.11.11,0,0,1,.11-.11h.63a.11.11,0,0,1,.11.11v.92A.11.11,0,0,1,8.71,11ZM8.08,9.91A.05.05,0,0,0,8,10v.92a.05.05,0,0,0,.05.05h.63a.05.05,0,0,0,.05-.05V10a.05.05,0,0,0-.05-.05Z"/><line class="cls-4" x1="8.21" y1="9.88" x2="8.21" y2="10.96"/><rect class="cls-4" x="8.18" y="9.88" width="0.06" height="1.08"/><rect class="cls-7" x="9.09" y="9.88" width="0.8" height="1.08" rx="0.39" ry="0.39"/><path class="cls-4" d="M9.8,11H9.17a.11.11,0,0,1-.11-.11V10a.11.11,0,0,1,.11-.11H9.8a.11.11,0,0,1,.11.11v.92A.11.11,0,0,1,9.8,11ZM9.17,9.91a.05.05,0,0,0-.05.05v.92a.05.05,0,0,0,.05.05H9.8a.05.05,0,0,0,.05-.05V10a.05.05,0,0,0-.05-.05Z"/><line class="cls-4" x1="9.3" y1="9.88" x2="9.3" y2="10.96"/><rect class="cls-4" x="9.27" y="9.88" width="0.06" height="1.08"/><rect class="cls-7" x="4.73" y="12.6" width="0.8" height="1.08" rx="0.39" ry="0.39"/><path class="cls-4" d="M5.44,13.71H4.81a.11.11,0,0,1-.11-.11v-.92a.11.11,0,0,1,.11-.11h.63a.11.11,0,0,1,.11.11v.92A.11.11,0,0,1,5.44,13.71Zm-.63-1.08a.05.05,0,0,0-.05.05v.92a.05.05,0,0,0,.05.05h.63a.05.05,0,0,0,.05-.05v-.92a.05.05,0,0,0-.05-.05Z"/><line class="cls-4" x1="4.94" y1="12.6" x2="4.94" y2="13.68"/><rect class="cls-4" x="4.91" y="12.6" width="0.06" height="1.08"/><rect class="cls-7" x="5.82" y="12.6" width="0.8" height="1.08" rx="0.39" ry="0.39"/><path class="cls-4" d="M6.53,13.71H5.9a.11.11,0,0,1-.11-.11v-.92a.11.11,0,0,1,.11-.11h.63a.11.11,0,0,1,.11.11v.92A.11.11,0,0,1,6.53,13.71ZM5.9,12.63a.05.05,0,0,0-.05.05v.92a.05.05,0,0,0,.05.05h.63a.05.05,0,0,0,.05-.05v-.92a.05.05,0,0,0-.05-.05Z"/><line class="cls-4" x1="6.03" y1="12.6" x2="6.03" y2="13.68"/><rect class="cls-4" x="6" y="12.6" width="0.06" height="1.08"/><rect class="cls-7" x="6.91" y="12.6" width="0.8" height="1.08" rx="0.39" ry="0.39"/><path class="cls-4" d="M7.62,13.71H7a.11.11,0,0,1-.11-.11v-.92A.11.11,0,0,1,7,12.57h.63a.11.11,0,0,1,.11.11v.92A.11.11,0,0,1,7.62,13.71ZM7,12.63a.05.05,0,0,0-.05.05v.92a.05.05,0,0,0,.05.05h.63a.05.05,0,0,0,.05-.05v-.92a.05.05,0,0,0-.05-.05Z"/><line class="cls-4" x1="7.12" y1="12.6" x2="7.12" y2="13.68"/><rect class="cls-4" x="7.09" y="12.6" width="0.06" height="1.08"/><rect class="cls-7" x="8" y="12.6" width="0.8" height="1.08" rx="0.39" ry="0.39"/><path class="cls-4" d="M8.71,13.71H8.08A.11.11,0,0,1,8,13.6v-.92a.11.11,0,0,1,.11-.11h.63a.11.11,0,0,1,.11.11v.92A.11.11,0,0,1,8.71,13.71Zm-.63-1.08a.05.05,0,0,0-.05.05v.92a.05.05,0,0,0,.05.05h.63a.05.05,0,0,0,.05-.05v-.92a.05.05,0,0,0-.05-.05Z"/><line class="cls-4" x1="8.21" y1="12.6" x2="8.21" y2="13.68"/><rect class="cls-4" x="8.18" y="12.6" width="0.06" height="1.08"/><rect class="cls-7" x="9.09" y="12.6" width="0.8" height="1.08" rx="0.39" ry="0.39"/><path class="cls-4" d="M9.8,13.71H9.17a.11.11,0,0,1-.11-.11v-.92a.11.11,0,0,1,.11-.11H9.8a.11.11,0,0,1,.11.11v.92A.11.11,0,0,1,9.8,13.71Zm-.63-1.08a.05.05,0,0,0-.05.05v.92a.05.05,0,0,0,.05.05H9.8a.05.05,0,0,0,.05-.05v-.92a.05.05,0,0,0-.05-.05Z"/><line class="cls-4" x1="9.3" y1="12.6" x2="9.3" y2="13.68"/><rect class="cls-4" x="9.27" y="12.6" width="0.06" height="1.08"/><rect class="cls-6" x="4.73" y="15.33" width="0.8" height="1.08" rx="0.39" ry="0.39"/><path class="cls-4" d="M5.44,16.44H4.81a.11.11,0,0,1-.11-.11v-.92a.11.11,0,0,1,.11-.11h.63a.11.11,0,0,1,.11.11v.92A.11.11,0,0,1,5.44,16.44Zm-.63-1.08a.05.05,0,0,0-.05.05v.92a.05.05,0,0,0,.05.05h.63a.05.05,0,0,0,.05-.05v-.92a.05.05,0,0,0-.05-.05Z"/><line class="cls-4" x1="4.94" y1="15.33" x2="4.94" y2="16.41"/><rect class="cls-4" x="4.91" y="15.33" width="0.06" height="1.08"/><rect class="cls-6" x="5.82" y="15.33" width="0.8" height="1.08" rx="0.39" ry="0.39"/><path class="cls-4" d="M6.53,16.44H5.9a.11.11,0,0,1-.11-.11v-.92a.11.11,0,0,1,.11-.11h.63a.11.11,0,0,1,.11.11v.92A.11.11,0,0,1,6.53,16.44ZM5.9,15.36a.05.05,0,0,0-.05.05v.92a.05.05,0,0,0,.05.05h.63a.05.05,0,0,0,.05-.05v-.92a.05.05,0,0,0-.05-.05Z"/><line class="cls-4" x1="6.03" y1="15.33" x2="6.03" y2="16.41"/><rect class="cls-4" x="6" y="15.33" width="0.06" height="1.08"/><rect class="cls-6" x="6.91" y="15.33" width="0.8" height="1.08" rx="0.39" ry="0.39"/><path class="cls-4" d="M7.62,16.44H7a.11.11,0,0,1-.11-.11v-.92A.11.11,0,0,1,7,15.3h.63a.11.11,0,0,1,.11.11v.92A.11.11,0,0,1,7.62,16.44ZM7,15.36a.05.05,0,0,0-.05.05v.92a.05.05,0,0,0,.05.05h.63a.05.05,0,0,0,.05-.05v-.92a.05.05,0,0,0-.05-.05Z"/><line class="cls-4" x1="7.12" y1="15.33" x2="7.12" y2="16.41"/><rect class="cls-4" x="7.09" y="15.33" width="0.06" height="1.08"/><rect class="cls-6" x="8" y="15.33" width="0.8" height="1.08" rx="0.39" ry="0.39"/><path class="cls-4" d="M8.71,16.44H8.08A.11.11,0,0,1,8,16.33v-.92a.11.11,0,0,1,.11-.11h.63a.11.11,0,0,1,.11.11v.92A.11.11,0,0,1,8.71,16.44Zm-.63-1.08a.05.05,0,0,0-.05.05v.92a.05.05,0,0,0,.05.05h.63a.05.05,0,0,0,.05-.05v-.92a.05.05,0,0,0-.05-.05Z"/><line class="cls-4" x1="8.21" y1="15.33" x2="8.21" y2="16.41"/><rect class="cls-4" x="8.18" y="15.33" width="0.06" height="1.08"/><rect class="cls-6" x="9.09" y="15.33" width="0.8" height="1.08" rx="0.39" ry="0.39"/><path class="cls-4" d="M9.8,16.44H9.17a.11.11,0,0,1-.11-.11v-.92a.11.11,0,0,1,.11-.11H9.8a.11.11,0,0,1,.11.11v.92A.11.11,0,0,1,9.8,16.44Zm-.63-1.08a.05.05,0,0,0-.05.05v.92a.05.05,0,0,0,.05.05H9.8a.05.05,0,0,0,.05-.05v-.92a.05.05,0,0,0-.05-.05Z"/><line class="cls-4" x1="9.3" y1="15.33" x2="9.3" y2="16.41"/><rect class="cls-4" x="9.27" y="15.33" width="0.06" height="1.08"/><rect class="cls-6" x="4.73" y="18.05" width="0.8" height="1.08" rx="0.39" ry="0.39"/><path class="cls-4" d="M5.44,19.16H4.81A.11.11,0,0,1,4.7,19v-.92A.11.11,0,0,1,4.81,18h.63a.11.11,0,0,1,.11.11V19A.11.11,0,0,1,5.44,19.16Zm-.63-1.08a.05.05,0,0,0-.05.05V19a.05.05,0,0,0,.05.05h.63A.05.05,0,0,0,5.5,19v-.92a.05.05,0,0,0-.05-.05Z"/><line class="cls-4" x1="4.94" y1="18.05" x2="4.94" y2="19.13"/><rect class="cls-4" x="4.91" y="18.05" width="0.06" height="1.08"/><rect class="cls-6" x="5.82" y="18.05" width="0.8" height="1.08" rx="0.39" ry="0.39"/><path class="cls-4" d="M6.53,19.16H5.9A.11.11,0,0,1,5.79,19v-.92A.11.11,0,0,1,5.9,18h.63a.11.11,0,0,1,.11.11V19A.11.11,0,0,1,6.53,19.16ZM5.9,18.08a.05.05,0,0,0-.05.05V19a.05.05,0,0,0,.05.05h.63A.05.05,0,0,0,6.59,19v-.92a.05.05,0,0,0-.05-.05Z"/><line class="cls-4" x1="6.03" y1="18.05" x2="6.03" y2="19.13"/><rect class="cls-4" x="6" y="18.05" width="0.06" height="1.08"/><rect class="cls-6" x="6.91" y="18.05" width="0.8" height="1.08" rx="0.39" ry="0.39"/><path class="cls-4" d="M7.62,19.16H7A.11.11,0,0,1,6.88,19v-.92A.11.11,0,0,1,7,18h.63a.11.11,0,0,1,.11.11V19A.11.11,0,0,1,7.62,19.16ZM7,18.08a.05.05,0,0,0-.05.05V19A.05.05,0,0,0,7,19.1h.63A.05.05,0,0,0,7.68,19v-.92a.05.05,0,0,0-.05-.05Z"/><line class="cls-4" x1="7.12" y1="18.05" x2="7.12" y2="19.13"/><rect class="cls-4" x="7.09" y="18.05" width="0.06" height="1.08"/><rect class="cls-6" x="8" y="18.05" width="0.8" height="1.08" rx="0.39" ry="0.39"/><path class="cls-4" d="M8.71,19.16H8.08A.11.11,0,0,1,8,19v-.92A.11.11,0,0,1,8.08,18h.63a.11.11,0,0,1,.11.11V19A.11.11,0,0,1,8.71,19.16Zm-.63-1.08a.05.05,0,0,0-.05.05V19a.05.05,0,0,0,.05.05h.63A.05.05,0,0,0,8.77,19v-.92a.05.05,0,0,0-.05-.05Z"/><line class="cls-4" x1="8.21" y1="18.05" x2="8.21" y2="19.13"/><rect class="cls-4" x="8.18" y="18.05" width="0.06" height="1.08"/><rect class="cls-6" x="9.09" y="18.05" width="0.8" height="1.08" rx="0.39" ry="0.39"/><path class="cls-4" d="M9.8,19.16H9.17A.11.11,0,0,1,9.06,19v-.92A.11.11,0,0,1,9.17,18H9.8a.11.11,0,0,1,.11.11V19A.11.11,0,0,1,9.8,19.16Zm-.63-1.08a.05.05,0,0,0-.05.05V19a.05.05,0,0,0,.05.05H9.8A.05.05,0,0,0,9.86,19v-.92a.05.05,0,0,0-.05-.05Z"/><line class="cls-4" x1="9.3" y1="18.05" x2="9.3" y2="19.13"/><rect class="cls-4" x="9.27" y="18.05" width="0.06" height="1.08"/><rect class="cls-6" x="6.33" y="20.73" width="2.12" height="0.53" rx="0.26" ry="0.26"/><path class="cls-4" d="M8.3,21.29H6.48a.18.18,0,0,1-.18-.18v-.23a.18.18,0,0,1,.18-.18H8.3a.18.18,0,0,1,.18.18v.23A.18.18,0,0,1,8.3,21.29Zm-1.82-.53a.12.12,0,0,0-.12.12v.23a.12.12,0,0,0,.12.12H8.3a.12.12,0,0,0,.12-.12v-.23a.12.12,0,0,0-.12-.12Z"/><path class="cls-4" d="M13,5.81l0,0a.7.7,0,0,0-.62-.38h0v0a.83.83,0,0,0-1.62-.27v0h-.08a.84.84,0,0,0-.82.66,0,0,0,0,1-.06,0,.9.9,0,0,1,.87-.71h0a.89.89,0,0,1,1.73.28.76.76,0,0,1,.66.42,0,0,0,0,1,0,0Z"/></g></g></svg>