<svg xmlns="http://www.w3.org/2000/svg" width="22.37851" height="19.92067" viewBox="0 0 22.37851 19.92067">
  
  <title>Asset 9</title>
  <g id="Layer_2" data-name="Layer 2">
    <g id="Layer_1-2" data-name="Layer 1">
      <g>
        <path class="cls-1" d="M10.46445,14.23155a8.02167,8.02167,0,0,0,1.14128.34139,3.09487,3.09487,0,0,1,.76376.26882c.22334.10789.44605.21751.66494.33407a4.077,4.077,0,0,0,1.716.46463,10.6457,10.6457,0,0,0,2.91066-.288,3.1748,3.1748,0,0,0,1.70237-1.03625,3.58564,3.58564,0,0,1,1.21754-.88111,1.76887,1.76887,0,0,1,.85878-.16824,1.08486,1.08486,0,0,1,.54321.18681.72669.72669,0,0,1,.13292,1.2075,1.138,1.138,0,0,1-.26173,1.46619A12.26025,12.26025,0,0,1,20.275,17.50372c-.424.32761-.84169.6636-1.26881.98711a2.445,2.445,0,0,1-1.18732.557c-.40932.046-.81318.11634-1.21716.19133-.89931.16694-1.79775.339-2.69874.4963a11.0195,11.0195,0,0,1-1.50049.1835,2.06606,2.06606,0,0,1-.88617-.14872A23.77579,23.77579,0,0,1,9.11553,18.542c-1.1389-.63311-2.25584-1.30531-3.40631-1.91786-.21892-.11656-.44443-.22073-.6642-.33576a3.85434,3.85434,0,0,0-1.05712-.25631c-.06071-.01256-.123-.01781-.18329-.032a.29694.29694,0,0,1-.27349-.36284c.0176-.31787.04177-.63543.06769-.95276q.11186-1.36959.22752-2.73887c.0447-.53385.09288-1.06743.13494-1.60149a.35973.35973,0,0,1,.26423-.31841,11.04309,11.04309,0,0,1,1.54475-.50554A8.85693,8.85693,0,0,1,8.35452,9.252a6.52307,6.52307,0,0,1,2.48133.64567,9.06231,9.06231,0,0,1,1.17688.65813,3.38151,3.38151,0,0,0,1.73449.52915,13.50182,13.50182,0,0,1,3.37931.61089,3.34518,3.34518,0,0,1,.57672.24627,1.24134,1.24134,0,0,1,.67915,1.44032,1.95573,1.95573,0,0,1-.42993.96565,1.02051,1.02051,0,0,1-1.04557.35053c-.72862-.15235-1.463-.27349-2.19758-.39351-.34434-.05626-.68921-.10956-1.03281-.17a4.431,4.431,0,0,0-1.55321-.0086,7.35991,7.35991,0,0,1-1.46226.08042A.3252.3252,0,0,0,10.46445,14.23155Z"/>
        <path class="cls-1" d="M11.75433,9.5965c-.08039.03251-.13154-.03267-.18773-.06389A7.87117,7.87117,0,0,0,8.84681,8.627a4.10174,4.10174,0,0,1-.49256-.0589,2.15225,2.15225,0,0,1-.012-.43485l5.12313-5.12236,5.13545,5.138v3.62691a5.82591,5.82591,0,0,0-2.626-1.062c-.21852-.04721-.44041-.07882-.686-.122,0-.15524.003-.30852-.00068-.46164-.00567-.23834-.07149-.30487-.30561-.30629q-.54771-.00332-1.09544,0c-.23635.0014-.3039.06925-.30981.302-.002.07724-.00031.15457-.00031.2257-.06092.06309-.11918.03411-.191.01645a1.18522,1.18522,0,0,1-.01995-.29138c-.01683-.18112-.08288-.24929-.26543-.25206-.30293-.00459-.606.00037-.909-.002a.55656.55656,0,0,1-.44222-.23067c.44191.00159.88382.00485,1.32573.004.206-.00037.28886-.07423.29143-.273q.00736-.57009-.00182-1.14034c-.00349-.21347-.07038-.2768-.28253-.27885q-.55851-.0054-1.11711-.00021c-.24639.00194-.30379.059-.30572.30139-.00272.34133.00525.68285-.00367,1.024A.61949.61949,0,0,0,11.75433,9.5965Zm2.67528-.00137v.00148c.20152,0,.40313.00369.60454-.00114.16737-.004.24951-.07356.25233-.23715.007-.40292.00581-.80613-.0013-1.20906-.0029-.16442-.0721-.24028-.22-.24334-.4105-.00848-.82131-.01257-1.2318-.00615-.17821.00278-.25176.08394-.25445.26346q-.00871.5812-.00035,1.16261c.00251.19317.07641.2633.26975.26821C14.042,9.599,14.23583,9.59513,14.42961,9.59513Z"/>
        <path class="cls-1" d="M13.45168,2.26079c-.06746.07884-.11893.14785-.17916.20812Q10.67727,5.06576,8.08091,7.66151a1.01817,1.01817,0,0,1-.48341.307.866.866,0,0,1-.87356-1.4c.05-.05923.10667-.11291.16158-.16783Q9.95936,3.32648,13.0335.25256c.03846-.03846.07528-.07883.11618-.11451a.44612.44612,0,0,1,.64856.00339c.16.14711.309.30617.46284.46q2.9335,2.934,5.868,5.86709a.86958.86958,0,1,1-1.16605,1.29c-.27648-.24962-.5317-.52287-.79533-.78665Q15.86908,4.672,13.571,2.37172C13.54392,2.34466,13.515,2.31951,13.45168,2.26079Z"/>
        <path class="cls-1" d="M.00087,15.8491c.00054-1.06406.06089-2.12585.15139-3.18516A29.26529,29.26529,0,0,1,.6584,9.12177c.00957-.04545.02251-.09022.03476-.13506.05778-.21153.1449-.28591.36284-.27974.38777.011.77531.03055,1.16285.04843q.38356.0177.76686.041c.23981.01479.35506.1358.32825.37786-.04351.39271-.107.78317-.15838,1.17505-.07459.56851-.14462,1.13762-.219,1.70615-.08356.63836-.14652,1.2788-.20112,1.92017a20.11852,20.11852,0,0,0-.102,2.95217.33.33,0,0,1-.37216.38932c-.5657-.02736-1.13152-.05238-1.69729-.07831C.50188,17.236.43959,17.236.3778,17.2303c-.26506-.02427-.37361-.13789-.37617-.40286C-.00153,16.50135.00087,16.17522.00087,15.8491Z"/>
      </g>
    </g>
  </g>
</svg>
