<svg xmlns="http://www.w3.org/2000/svg" viewBox="0 0 22.78 22.86"><defs><style>.cls-1{fill:#666;}</style></defs><title>Asset 9</title><g id="Layer_2" data-name="Layer 2"><g id="Layer_10" data-name="Layer 10"><path class="cls-1" d="M11.32,22.86A10.87,10.87,0,0,1,6,21.52,11.45,11.45,0,0,1,.1,9.83a.16.16,0,0,1,.16-.14,23.08,23.08,0,0,1,9.38,1.74.16.16,0,1,1-.14.3A22.55,22.55,0,0,0,.41,10,11.12,11.12,0,0,0,6.16,21.23a11.82,11.82,0,0,0,10,.35.16.16,0,1,1,.13.3A13.15,13.15,0,0,1,11.32,22.86Z"/><path class="cls-1" d="M17.34,21.21a.16.16,0,0,1-.09-.3,11.86,11.86,0,0,0,4.22-5.12A11.3,11.3,0,0,0,22.38,10a24.94,24.94,0,0,0-10.82,2.37,25.89,25.89,0,0,0-8.1,6.16.16.16,0,0,1-.25-.22,26.21,26.21,0,0,1,8.2-6.24,25.4,25.4,0,0,1,11.1-2.41.16.16,0,0,1,.17.14,11.6,11.6,0,0,1-.92,6.1,12.19,12.19,0,0,1-4.34,5.26A.16.16,0,0,1,17.34,21.21Z"/><path class="cls-1" d="M5.2,20.53a.16.16,0,0,1-.13-.26A21.46,21.46,0,0,1,12,14.7a.16.16,0,1,1,.15.29,21.09,21.09,0,0,0-6.78,5.47A.16.16,0,0,1,5.2,20.53Z"/><path class="cls-1" d="M13.3,14.38a.16.16,0,0,1-.08-.31,18.91,18.91,0,0,1,9.33-1.77.16.16,0,1,1,0,.33,18.53,18.53,0,0,0-9.15,1.73Z"/><path class="cls-1" d="M7.45,21.79a.16.16,0,0,1-.12-.27,19.21,19.21,0,0,1,14.6-6.61.16.16,0,0,1,0,.33h-.09a18.88,18.88,0,0,0-14.26,6.5A.16.16,0,0,1,7.45,21.79Z"/><path class="cls-1" d="M10,22.79a.16.16,0,0,1-.12-.28,16.42,16.42,0,0,1,10.24-4.92.16.16,0,1,1,0,.33,16.09,16.09,0,0,0-10,4.82A.16.16,0,0,1,10,22.79Z"/><path class="cls-1" d="M7.15,13.36H7.09s-3.8-1.41-6.75-1a.16.16,0,1,1-.05-.33,16.29,16.29,0,0,1,6.92,1,.16.16,0,0,1-.06.32Z"/><path class="cls-1" d="M4.76,15h0a13.33,13.33,0,0,0-4.11-.28.16.16,0,1,1,0-.33,13.4,13.4,0,0,1,4.23.29.16.16,0,0,1,0,.32Z"/><path class="cls-1" d="M1.56,17.07a.16.16,0,0,1,0-.33,4.83,4.83,0,0,1,1.17,0,.16.16,0,0,1,0,.33,4.44,4.44,0,0,0-1.06,0Z"/><path class="cls-1" d="M16.18,10.73a.16.16,0,0,1-.16-.16v-3a.16.16,0,1,1,.33,0v3A.16.16,0,0,1,16.18,10.73Z"/><path class="cls-1" d="M19.78,10.15a.16.16,0,0,1-.16-.16V7.58a.16.16,0,1,1,.33,0V10A.16.16,0,0,1,19.78,10.15Z"/><path class="cls-1" d="M20.52,8.12l-.07,0L17.92,6.82,15.46,8.1a.16.16,0,0,1-.15-.29l2.53-1.32a.16.16,0,0,1,.15,0l2.6,1.32a.16.16,0,0,1-.07.31Z"/><path class="cls-1" d="M18.42,10.14l-.84.13V8.84A.42.42,0,0,1,18,8.42h0a.42.42,0,0,1,.42.42Z"/><path class="cls-1" d="M11.42,5.19A2.59,2.59,0,1,1,14,2.59,2.6,2.6,0,0,1,11.42,5.19Zm0-4.86a2.26,2.26,0,1,0,2.26,2.26A2.27,2.27,0,0,0,11.42.33Z"/></g></g></svg>