<svg xmlns="http://www.w3.org/2000/svg" viewBox="0 0 22.6 23.38"><defs><style>.cls-1{fill:#666;}.cls-2{fill:#e4002b;}</style></defs><title>Asset 3</title><g id="Layer_2" data-name="Layer 2"><g id="Layer_4" data-name="Layer 4"><circle class="cls-1" cx="5.99" cy="10.93" r="4.02"/><path class="cls-1" d="M.17,21.63a1.52,1.52,0,0,0,1.32,1.49s9,.85,9.91-.54.37-4.91.37-4.91c-.47-1.77-2.83-2-2.83-2a2,2,0,0,1-.47.85,15.68,15.68,0,0,0-1.91,2.77s-.17-.75-.28-1.55A2.24,2.24,0,0,1,7,16.11c.16-.2-.15-.32-.15-.32s-1.35,0-1.73,0-.07.39.39,1-.09,2.51-.09,2.51S3.88,17,3.53,16.64a3.33,3.33,0,0,1-.58-.95A3,3,0,0,0,0,18.93,12.64,12.64,0,0,0,.17,21.63Z"/><path class="cls-2" d="M22.6.73V9.68a.73.73,0,0,1-.73.73H18.63a9,9,0,0,1-1.1,2.9c-.31.68-.59.61-.59.61a.43.43,0,0,1-.42-.41c0-.09,0-.18,0-.26a7.28,7.28,0,0,0-.94-2.84h-4.8A4.86,4.86,0,0,0,5.89,5.66H5.78V.73A.73.73,0,0,1,6.51,0H21.87A.73.73,0,0,1,22.6.73Z"/></g></g></svg>