<svg xmlns="http://www.w3.org/2000/svg" viewBox="0 0 43.91 32.87"><title>Asset 8</title><g id="Layer_2" data-name="Layer 2"><g id="HOMELOAN"><path d="M33.24,13.44h-6a.2.2,0,0,1-.13,0L17,5.12,7,13.39a.2.2,0,0,1-.13,0H.2a.2.2,0,0,1-.12-.35L16.59,0a.2.2,0,0,1,.25,0l4.28,3.64-.07-2.63a.2.2,0,0,1,.2-.2h4.07a.2.2,0,0,1,.2.2L25.6,7l7.75,6.09a.2.2,0,0,1-.12.35Zm-6-.4h5.39l-7.38-5.8a.2.2,0,0,1-.08-.15l-.08-5.84H21.46l.07,2.87a.2.2,0,0,1-.33.16L16.71.45.77,13h6L16.9,4.71a.2.2,0,0,1,.25,0Z"/><path d="M22.92,30.13H18.78a.2.2,0,0,1-.2-.2V24.2H15.31v5.73a.2.2,0,0,1-.2.2H6.6a.2.2,0,0,1-.2-.2V15.17a.2.2,0,1,1,.4,0V29.73h8.12V24a.2.2,0,0,1,.2-.2h3.67a.2.2,0,0,1,.2.2v5.73h3.94a.2.2,0,0,1,0,.4Z"/><path d="M34,19.52H25.57a.2.2,0,0,1-.2-.2V16.67a.2.2,0,0,1,.2-.2H27.4v-2a.2.2,0,0,1,.2-.2H39.28a.2.2,0,0,1,.2.2v2.23a.2.2,0,0,1-.2.2H25.77v2.25H34a.2.2,0,1,1,0,.4Zm-6.19-3H39.08V14.64H27.79Z"/><path d="M30.16,30.92H23.74a.2.2,0,0,1-.2-.2V28.53a.2.2,0,0,1,.2-.2h6.19a.2.2,0,1,1,0,.4h-6v1.79h6.23a.2.2,0,0,1,0,.4Z"/><path d="M29.77,26.43H24.63a.2.2,0,0,1-.2-.2V23.78a.2.2,0,0,1,.2-.2h5.84a.2.2,0,1,1,0,.4H24.83V26h4.94a.2.2,0,1,1,0,.4Z"/><path d="M24.63,24a.2.2,0,0,1-.2-.2V21.36a.2.2,0,0,1,.2-.2h6.89a.2.2,0,0,1,0,.4H24.83v2.22A.2.2,0,0,1,24.63,24Z"/><path d="M24.63,21.56a.2.2,0,0,1-.2-.2v-2a.2.2,0,0,1,.2-.2h.93a.2.2,0,0,1,0,.4h-.74v1.85A.2.2,0,0,1,24.63,21.56Z"/><path d="M26.21,28.73a.2.2,0,0,1-.2-.2v-2.3a.2.2,0,0,1,.4,0v2.3A.2.2,0,0,1,26.21,28.73Z"/><path d="M37.82,32.88a6.29,6.29,0,0,1-6.1-6.46A6.29,6.29,0,0,1,37.82,20a6.29,6.29,0,0,1,6.1,6.46A6.29,6.29,0,0,1,37.82,32.88Zm0-12.52a5.89,5.89,0,0,0-5.7,6.06,5.89,5.89,0,0,0,5.7,6.06,5.89,5.89,0,0,0,5.7-6.06A5.89,5.89,0,0,0,37.82,20.36Z"/><path d="M40,25a.15.15,0,0,0-.11,0H39a1.67,1.67,0,0,0-.31-.7h1.13a.15.15,0,0,0,.15-.15v-.49a.15.15,0,0,0-.15-.15h-4a.15.15,0,0,0-.15.15v.64a.16.16,0,0,0,.15.15h.7q1,0,1.3.55h-2a.15.15,0,0,0-.15.15v.49a.15.15,0,0,0,.15.15h2.06a.94.94,0,0,1-.5.6,2.18,2.18,0,0,1-1,.21h-.54a.16.16,0,0,0-.15.15v.61a.14.14,0,0,0,0,.11q.93,1,2.41,2.76a.14.14,0,0,0,.12.06h.94a.14.14,0,0,0,.14-.09.13.13,0,0,0,0-.16q-1.41-1.73-2.22-2.59a2.45,2.45,0,0,0,1.33-.53A1.81,1.81,0,0,0,39,25.72h.81a.15.15,0,0,0,.15-.15v-.49A.15.15,0,0,0,40,25Zm0,0"/></g></g></svg>