<svg xmlns="http://www.w3.org/2000/svg" width="22.79754" height="21.41667" viewBox="0 0 22.79754 21.41667">
  
  <title>Asset 6</title>
  <g id="Layer_2" data-name="Layer 2">
    <g id="Layer_4" data-name="Layer 4">
      <path class="cls-1" d="M10.96978,4.27283l4.78683,3.49139A1.24439,1.24439,0,0,0,14.7411,8.95729a.41522.41522,0,0,1-.21736-.117C13.53015,8.121,12.53279,7.4068,11.547,6.67692a.89867.89867,0,0,0-1.15529.00589Q7.00914,9.15165,3.611,11.59916c-.04877.03532-.09642.0722-.14508.10766a.7724.7724,0,0,0-.33.65836q-.00192,3.796-.00226,7.592c0,.02884.00455.05768.00793.09787H4.81833c0-.60393.00013-1.19761,0-1.79129-.00028-1.08457-.00436-2.16916.00015-3.25372a2.25844,2.25844,0,0,1,.85264-1.883,2.10885,2.10885,0,0,1,3.37227,1.21574,2.65424,2.65424,0,0,1,.04771.539q.00819,2.45157.00782,4.90316a.61618.61618,0,0,1-.03555.2735h9.74482V16.9715l1.58251-.159V20.063h.76982v1.35366H.78V20.07535h.7637V11.14382Z"/>
      <path class="cls-1" d="M6.06022,3.39752a7.58677,7.58677,0,0,0,.90452-.647Q8.53149,1.54708,10.09555.3401A1.364,1.364,0,0,1,11.09589.00676a1.62443,1.62443,0,0,1,.81979.34794q.96034.73259,1.91817,1.46848,3.70685,2.8462,7.413,5.69331a3.4077,3.4077,0,0,1,.39481.33678.97985.97985,0,0,1-.11336,1.50185,1.39966,1.39966,0,0,1-1.68285-.02722c-.49316-.358-.97548-.73117-1.45869-1.1027Q15.183,5.76189,11.98168,3.29539c-.17292-.13315-.3423-.27092-.51542-.4038-.37527-.288-.54215-.28881-.92319.00372C9.73714,3.514,8.93456,4.13713,8.128,4.755Q5.23338,6.9725,2.33639,9.18687a1.90378,1.90378,0,0,1-.98331.46959A1.2468,1.2468,0,0,1,.212,9.1922.98544.98544,0,0,1,.40823,7.7873c.3332-.27.67921-.52407,1.0183-.78681.4581-.355.91294-.71418,1.37328-1.06619a.99133.99133,0,0,0,.40835-.81386c.01889-.91121.00942-1.82242.01156-2.73363a1.06432,1.06432,0,0,1,.01534-.247.44512.44512,0,0,1,.42916-.33963c.64-.00724,1.28026-.01,1.92021-.00063a.46686.46686,0,0,1,.4724.50112c.01041.22546.003.45176.00333.67768C6.06038,3.10589,6.06022,3.2334,6.06022,3.39752Z"/>
      <path class="cls-2" d="M11.84332,16.94523A1.36932,1.36932,0,0,1,10.29348,15.93a4.83278,4.83278,0,0,1-.04805-.65129c-.05694-.73475-.15482-1.46467-.23234-2.19693A1.26543,1.26543,0,0,1,11.12957,11.663c.46217-.05681.92749-.08781,1.39128-.13157q.89772-.08471,1.79527-.1713c.53106-.05067,1.06246-.09811,1.59313-.15263.6502-.0668,1.29951-.14228,1.94976-.20857.38879-.03964.77854-.07,1.168-.10252.65148-.05443,1.3047-.10367,1.94934-.20877A1.34962,1.34962,0,0,1,22.532,11.95878a13.845,13.845,0,0,0,.15523,1.68244c.04105.328.08132.65655.10594.98605a1.17615,1.17615,0,0,1-.77383,1.241,1.8335,1.8335,0,0,1-.52421.12491c-.68043.06895-1.36187.12782-2.04246.19524-.6877.06812-1.37462.14411-2.06228.21261-.67293.067-1.34657.12678-2.01951.1937-.68033.06765-1.36.14216-2.04028.20992C12.76991,16.86045,12.20866,16.91084,11.84332,16.94523Zm9.8522-2.50719c-.53228.03131-1.04231.11762-1.57924.13068a4.47981,4.47981,0,0,1-.04831-.66314l1.38154-.13433a2.33094,2.33094,0,0,0-.06973-.68782c-.24487.02469-.46854.05946-.69308.0665a2.96083,2.96083,0,0,1-.68943.04116,1.33308,1.33308,0,0,1-.03863-.49456l1.47692-.14572a2.3408,2.3408,0,0,0-.06155-.69114l-2.24546.21829.31645,3.26377,2.29732-.21671A5.06783,5.06783,0,0,0,21.69552,14.438Zm-8.16511-.76745a.93764.93764,0,0,0-.7691-.97245,1.56114,1.56114,0,0,0-.90651.08044.91844.91844,0,0,0-.525,1.24278.958.958,0,0,0,.73217.57542c.2405.05726.48574.09433.7273.14753a.256.256,0,0,1,.22464.19521.299.299,0,0,1-.11735.29953.54314.54314,0,0,1-.81713-.135c-.04342-.09261-.08235-.18732-.12843-.29272a4.26059,4.26059,0,0,0-.68054.1569,1.52121,1.52121,0,0,0,.2169.60089.98477.98477,0,0,0,.75428.47549,1.96379,1.96379,0,0,0,.73861-.05243.992.992,0,0,0,.77442-.96084.97371.97371,0,0,0-.72571-1.036c-.10009-.03058-.20377-.04932-.30555-.0745-.18912-.04679-.38535-.05917-.571-.12474-.09922-.035-.17658-.08141-.19044-.19361.0984-.18467.20512-.226.4644-.23736.27891-.01218.33983.195.41581.38683A5.186,5.186,0,0,0,13.53041,13.67059Zm3.34818,1.908-1.50239-3.145-.71647.06843c-.27956,1.11353-.56647,2.2253-.837,3.36123a4.281,4.281,0,0,0,.76726-.06287l.17593-.717a10.00762,10.00762,0,0,1,1.0037-.08261l.31528.64622A4.5304,4.5304,0,0,0,16.87859,15.57856Zm.78975-.76381c-.10368-.85352-.14731-1.70448-.26323-2.55922-.24659.06833-.48577.0134-.72273.10391l.30884,3.20751c.72328-.049,1.42836-.1204,2.13866-.19987a4.29867,4.29867,0,0,0-.05212-.68122Z"/>
      <path class="cls-1" d="M9.15912,8.70318h1.4661V11.347H9.15912Z"/>
      <path class="cls-1" d="M11.451,8.71678H12.8969v1.57964L11.47236,11.3172A19.79649,19.79649,0,0,1,11.451,8.71678Z"/>
      <path class="cls-2" d="M17.10189,9.07756l2.83531,1.27622-.01206.03946q-.61336.05288-1.2267.106a.46608.46608,0,0,1-.24265-.03107c-.52426-.24043-1.049-.47981-1.59136-.72765A7.01206,7.01206,0,0,1,17.10189,9.07756Z"/>
      <path class="cls-2" d="M14.87695,9.32039l.37267.56168c-.01468.08251-.07992.09973-.12659.13287q-.62556.44431-1.25325.88563a.46506.46506,0,0,1-.22147.10451c-.40883.03963-.81754.08036-1.24317.08157Z"/>
      <path class="cls-2" d="M15.94414,9.81654a.829.829,0,0,1-.83312-.87235.84737.84737,0,0,1,.85583-.83489.856.856,0,0,1,.86032.85873A.83564.83564,0,0,1,15.94414,9.81654Zm.48114-.82669a.45732.45732,0,0,0-.45231-.48524.44934.44934,0,0,0-.462.451.45747.45747,0,1,0,.9143.03425Z"/>
      <path class="cls-2" d="M15.46089,14.3152l-.52471.05586a8.36773,8.36773,0,0,1,.18155-.83052Z"/>
    </g>
  </g>
</svg>
