<svg xmlns="http://www.w3.org/2000/svg" viewBox="0 0 22.92 22.34"><defs><style>.cls-1{fill:#666;}.cls-2{fill:#e4002b;}</style></defs><title>Asset 2</title><g id="Layer_2" data-name="Layer 2"><g id="Layer_5" data-name="Layer 5"><polygon class="cls-1" points="12.52 4.92 5.89 9.18 7.41 11.4 14.59 6.99 12.52 4.92"/><polygon class="cls-1" points="7.74 12.06 17.22 15.84 15.74 18.17 6.34 14.4 7.74 12.06"/><path class="cls-2" d="M4,15.84a4,4,0,1,1,4-4A4,4,0,0,1,4,15.84ZM4,9.67a2.19,2.19,0,1,0,2.19,2.19A2.2,2.2,0,0,0,4,9.67Z"/><circle class="cls-1" cx="16.42" cy="4.16" r="4.16"/><circle class="cls-1" cx="18.76" cy="18.17" r="4.16"/><path d="M12.52,4.92"/></g></g></svg>