<svg xmlns="http://www.w3.org/2000/svg" width="17.36057" height="23.66678" viewBox="0 0 17.36057 23.66678">
  <defs>
    <style>
      .cls-1 {
        fill: #e4002b;
      }

      .cls-2 {
        fill: #666;
      }
    </style>
  </defs>
  <title>Asset 12</title>
  <g id="Layer_2" data-name="Layer 2">
    <g id="Layer_2-2" data-name="Layer 2">
      <circle class="cls-1" cx="8.5597" cy="5.03568" r="5.03568"/>
      <path class="cls-1" d="M7.36442,12.13023H9.90308a.17923.17923,0,0,1,.16175.25646l-.907,1.89971h-1.085l-.87137-1.90228A.17923.17923,0,0,1,7.36442,12.13023Z"/>
      <polygon class="cls-1" points="8.059 14.551 9.2 14.551 9.673 21.103 8.699 22.577 7.809 21.144 8.059 14.551"/>
      <path class="cls-2" d="M8.9585,23.66678A28.741,28.741,0,0,1,.222,22.25642L0,22.17752v-5.0673a6.60117,6.60117,0,0,1,6.59368-6.59368h4.17321a6.60117,6.60117,0,0,1,6.59368,6.59368v4.79947l-.1879.09134A20.30118,20.30118,0,0,1,8.9585,23.66678ZM.66771,21.701a28.90247,28.90247,0,0,0,8.29079,1.2981,20.37178,20.37178,0,0,0,7.73436-1.514V17.11021a5.93265,5.93265,0,0,0-5.926-5.926H6.59368a5.93265,5.93265,0,0,0-5.926,5.926Z"/>
    </g>
  </g>
</svg>
