<svg xmlns="http://www.w3.org/2000/svg" viewBox="0 0 43.66 44.14"><title>Asset 3</title><g id="Layer_2" data-name="Layer 2"><g id="VAASTU"><path d="M21.93,26.15a4.27,4.27,0,1,1,4.27-4.27A4.27,4.27,0,0,1,21.93,26.15Zm0-8.05a3.78,3.78,0,1,0,3.78,3.78A3.79,3.79,0,0,0,21.93,18.09Z"/><path d="M21.93,24.75a2.87,2.87,0,1,1,2.87-2.87A2.87,2.87,0,0,1,21.93,24.75Zm0-5.26a2.39,2.39,0,1,0,2.39,2.39A2.39,2.39,0,0,0,21.93,19.49Z"/><path d="M24.56,18.09a.24.24,0,0,1-.24-.21L22,1.88l-2.41,16a.24.24,0,0,1-.48-.07L21.71.21A.24.24,0,0,1,22,0h0a.24.24,0,0,1,.24.21L24.8,17.82a.24.24,0,0,1-.2.27Z"/><path d="M21.93,44.14a.24.24,0,0,1-.24-.21l-2.63-18a.24.24,0,0,1,.48-.07l2.39,16.36,2.39-16.36a.24.24,0,0,1,.48.07l-2.63,18A.24.24,0,0,1,21.93,44.14Z"/><path d="M26,24.75a.24.24,0,0,1,0-.48L41.8,21.88,25.92,19.49A.24.24,0,0,1,26,19l17.46,2.63a.24.24,0,0,1,0,.48L26,24.74Z"/><path d="M17.91,24.75h0L.21,22.18a.24.24,0,0,1,0-.48L17.87,19a.24.24,0,1,1,.07.48L1.89,21.94l16.06,2.33a.24.24,0,0,1,0,.48Z"/><path d="M15.73,18.88a.24.24,0,0,1-.21-.12l-4.58-7.49a.24.24,0,0,1,.33-.33l7.32,4.58a.24.24,0,0,1-.26.41l-6.45-4,4,6.62a.24.24,0,0,1-.21.37Z"/><path d="M27.75,19.21a.24.24,0,0,1-.21-.37l4.15-6.92-6.55,4.29a.24.24,0,0,1-.26-.4l7.44-4.86a.24.24,0,0,1,.34.33L28,19.1A.24.24,0,0,1,27.75,19.21Z"/><path d="M11.14,32.85a.24.24,0,0,1-.2-.37l4.92-7.77a.24.24,0,0,1,.41.26l-4.34,6.86,6.86-4.34a.24.24,0,0,1,.26.41l-7.77,4.92A.24.24,0,0,1,11.14,32.85Z"/><path d="M32.44,32.85a.24.24,0,0,1-.13,0l-7.44-5a.24.24,0,1,1,.27-.4l6.5,4.35L27.38,25a.24.24,0,0,1,.41-.26l4.86,7.77a.24.24,0,0,1-.21.37Z"/><path d="M17.91,14.8a.24.24,0,0,1-.24-.2L17,10.85a.24.24,0,0,1,.43-.19l2.07,2.8a.24.24,0,1,1-.39.29l-1.45-2,.49,2.73a.24.24,0,0,1-.2.28Z"/><path d="M26,14.8h0a.24.24,0,0,1-.2-.27L26.09,12,24.75,13.7a.24.24,0,1,1-.38-.3l1.9-2.4a.24.24,0,0,1,.43.19l-.5,3.41A.24.24,0,0,1,26,14.8Z"/><path d="M29.93,19.49a.24.24,0,0,1-.15-.43l1.77-1.38L29,18.09a.24.24,0,1,1-.08-.48l3.47-.56a.24.24,0,0,1,.19.43l-2.52,2A.24.24,0,0,1,29.93,19.49Z"/><path d="M32.44,26.59h0l-3.47-.45a.24.24,0,0,1,.06-.48L31.5,26,29.68,24.7a.24.24,0,1,1,.28-.4l2.63,1.85a.24.24,0,0,1-.14.44Z"/><path d="M26.46,33a.24.24,0,0,1-.19-.09l-2.18-2.68a.24.24,0,0,1,.38-.3l1.63,2-.38-2.78a.24.24,0,0,1,.48-.07l.5,3.63a.24.24,0,0,1-.14.25Z"/><path d="M17.24,33l-.1,0a.24.24,0,0,1-.14-.26l.67-4.05a.24.24,0,0,1,.48.08l-.51,3.08,1.48-2a.24.24,0,1,1,.39.29l-2.07,2.74A.24.24,0,0,1,17.24,33Z"/><path d="M10.86,26.59a.24.24,0,0,1-.13-.45l2.91-1.85a.24.24,0,1,1,.26.41l-2.12,1.35,2.93-.17a.24.24,0,0,1,0,.48l-3.86.22Z"/><path d="M13.6,19.49a.24.24,0,0,1-.15-.05l-2.46-2a.24.24,0,0,1,.19-.43l3.66.56a.24.24,0,1,1-.07.48L12,17.67l1.75,1.39a.24.24,0,0,1-.15.43Z"/><path d="M21.93,17.37h0a.24.24,0,0,1-.24-.24l0-16.88A.24.24,0,0,1,22,0h0a.24.24,0,0,1,.24.24l0,16.88A.24.24,0,0,1,21.93,17.37Z"/><path d="M21.93,44.14a.24.24,0,0,1-.24-.24V26.57a.24.24,0,0,1,.48,0V43.9A.24.24,0,0,1,21.93,44.14Z"/><path d="M17,22.19H.24a.24.24,0,1,1,0-.48H17a.24.24,0,1,1,0,.48Z"/><path d="M43,22.19h0L26.8,22.12a.24.24,0,0,1,0-.48h0L43,21.7a.24.24,0,0,1,0,.48Z"/><path d="M21.64,40.46A18.59,18.59,0,1,1,40.23,21.87,18.61,18.61,0,0,1,21.64,40.46Zm0-36.7A18.11,18.11,0,1,0,39.75,21.87,18.13,18.13,0,0,0,21.64,3.76Z"/><path d="M21.64,42.23A20.36,20.36,0,1,1,42,21.87,20.38,20.38,0,0,1,21.64,42.23ZM21.64,2A19.87,19.87,0,1,0,41.52,21.87,19.9,19.9,0,0,0,21.64,2Z"/></g></g></svg>