<svg xmlns="http://www.w3.org/2000/svg" viewBox="0 0 20.93 23.41"><defs><style>.cls-1{fill:#e4002b;}.cls-2{fill:#666;}</style></defs><title>Asset 2</title><g id="Layer_2" data-name="Layer 2"><g id="Layer_4" data-name="Layer 4"><path class="cls-1" d="M5.14,4.95a5.31,5.31,0,0,1,2.17-4V3.07a.58.58,0,0,0,.58.58h0a.58.58,0,0,0,.58-.58V.35A3.44,3.44,0,0,1,9.87,0V4a.54.54,0,0,0,.54.54h0A.54.54,0,0,0,11,4V0a4.08,4.08,0,0,1,1.4.35V3.13a.59.59,0,0,0,.59.59h0a.59.59,0,0,0,.59-.59V1a5.24,5.24,0,0,1,2.21,4H16a.45.45,0,0,1,.45.45v.29a.45.45,0,0,1-.45.45H4.85a.45.45,0,0,1-.45-.45V5.39a.45.45,0,0,1,.45-.45Z"/><path class="cls-2" d="M10.43,13.34c-1.78,0-3.12-1.15-3.89-3.34a12,12,0,0,1-.61-3.24l.56,0c0,.06.22,6,3.94,6a3.21,3.21,0,0,0,2.36-1c1.68-1.69,1.67-5,1.67-5.07H15c0,.15,0,3.62-1.83,5.47A3.75,3.75,0,0,1,10.43,13.34Z"/><path class="cls-1" d="M9.87,16.24h1.27a.26.26,0,0,0,.26-.21l.25-1.15a.26.26,0,0,0-.26-.32H9.59a.26.26,0,0,0-.25.32L9.62,16A.26.26,0,0,0,9.87,16.24Z"/><path class="cls-1" d="M10.51,21.38,9.27,18.86a.25.25,0,0,1,0-.17l.43-1.88a.25.25,0,0,1,.24-.2H11a.25.25,0,0,1,.25.19l.44,1.79a.25.25,0,0,1,0,.17Z"/><path class="cls-2" d="M13.47,13.78c.2,4.06-2.91,8.95-2.91,8.95-2.56-3.23-3-8.84-3-8.84a17.53,17.53,0,0,1-1.84.59C4.41,14.84.08,15.56,0,18.31s.32,2.58.32,2.58,3.56,2.52,10.49,2.52,9.8-2.54,9.8-2.54,1-2.77-.61-4.42S14.26,14.52,13.47,13.78Z"/></g></g></svg>