<svg xmlns="http://www.w3.org/2000/svg" viewBox="0 0 23.22 20.71"><defs><style>.cls-1{fill:#ffffff;}</style></defs><title>Asset 7</title><g id="Layer_2" data-name="Layer 2"><g id="Layer_13" data-name="Layer 13"><path class="cls-1" d="M12.75,20.71a2.25,2.25,0,0,1-.88-.17,22.53,22.53,0,0,1-2.29-1.16l-.18-.1L8,18.5c-.68-.39-1.39-.8-2.1-1.17l-.35-.18L5.25,17a2.24,2.24,0,0,0-.71-.19l-.32-.05H4.15L4,16.7a.48.48,0,0,1-.42-.56c0-.33,0-.65.07-1q.11-1.4.23-2.8l.05-.6c0-.35.06-.69.09-1a.56.56,0,0,1,.38-.48A11.52,11.52,0,0,1,6,9.73a9.16,9.16,0,0,1,2.69-.28,6.88,6.88,0,0,1,2.6.68,9.38,9.38,0,0,1,1.23.69,3.27,3.27,0,0,0,1.68.51,13.91,13.91,0,0,1,3.5.63,3.55,3.55,0,0,1,.62.27,1.46,1.46,0,0,1,.79,1.67A2.17,2.17,0,0,1,18.65,15a1.22,1.22,0,0,1-1.25.42c-.77-.16-1.58-.29-2.24-.4l-.33-.05-.73-.12a4.36,4.36,0,0,0-1.52,0,5.57,5.57,0,0,1-.62.07l.09,0a3.29,3.29,0,0,1,.83.29l.69.34a4,4,0,0,0,1.67.45,10.67,10.67,0,0,0,2.92-.29,3.07,3.07,0,0,0,1.64-1,3.87,3.87,0,0,1,1.3-.95,2,2,0,0,1,1-.19,1.29,1.29,0,0,1,.65.22,1,1,0,0,1,.48.71,1,1,0,0,1-.22.7,1.34,1.34,0,0,1-.35,1.6A12.47,12.47,0,0,1,21,18.2l-.52.41-.77.6a2.69,2.69,0,0,1-1.3.61c-.39,0-.77.11-1.23.19l-.69.13-2.06.38a11.49,11.49,0,0,1-1.56.19ZM8.3,9.81a9.1,9.1,0,0,0-2.18.28,11.16,11.16,0,0,0-1.55.51c-.12.05-.15.1-.15.17,0,.35-.06.69-.09,1l-.05.6q-.12,1.4-.23,2.8c0,.32-.05.64-.07,1,0,.13,0,.15.14.18l.09,0,.09,0,.3.05a2.55,2.55,0,0,1,.83.23l.31.16L6.1,17c.71.38,1.42.79,2.11,1.18L9.58,19l.18.1A22.28,22.28,0,0,0,12,20.2a1.92,1.92,0,0,0,.83.14,11.15,11.15,0,0,0,1.51-.18l2.06-.38.69-.13c.46-.09.85-.15,1.26-.2a2.32,2.32,0,0,0,1.12-.53l.77-.6.52-.41a12.21,12.21,0,0,0,1.59-1.38c.43-.46.5-.85.24-1.28l-.07-.12.09-.1a.66.66,0,0,0,.22-.51.64.64,0,0,0-.32-.44.92.92,0,0,0-.46-.16,1.6,1.6,0,0,0-.79.16,3.45,3.45,0,0,0-1.18.85A3.43,3.43,0,0,1,18.26,16a11.07,11.07,0,0,1-3,.3,4.36,4.36,0,0,1-1.83-.5l-.67-.34a2.92,2.92,0,0,0-.73-.26,8.4,8.4,0,0,1-1.19-.36l-.39-.14.36-.2A.44.44,0,0,1,11,14.5a7.43,7.43,0,0,0,1.48-.08,4.72,4.72,0,0,1,1.65,0l.73.12.33.05c.66.11,1.47.24,2.25.4a.86.86,0,0,0,.89-.3,1.81,1.81,0,0,0,.4-.9,1.08,1.08,0,0,0-.6-1.28,3.24,3.24,0,0,0-.56-.24,13.57,13.57,0,0,0-3.4-.61,3.62,3.62,0,0,1-1.86-.57,9.08,9.08,0,0,0-1.18-.66A6.51,6.51,0,0,0,8.7,9.82Z"/><path class="cls-1" d="M19.36,12.6l-.3-.25a5.77,5.77,0,0,0-2.6-1L16,11.22l-.38-.07v-.3c0-.11,0-.21,0-.32a.31.31,0,0,0,0-.12H14.36a.29.29,0,0,0-.12,0h0a.58.58,0,0,0,0,.11c0,.05,0,.11,0,.16v.14l-.05.05a.32.32,0,0,1-.35.08l-.09,0-.06-.1a.68.68,0,0,1,0-.26s0-.06,0-.09a.22.22,0,0,0,0-.08h-1a.73.73,0,0,1-.52-.22.39.39,0,0,1-.18-.08,7.87,7.87,0,0,0-2.74-.92L9,9.16a1.8,1.8,0,0,1-.35,0l-.11,0,0-.11a1.36,1.36,0,0,1,0-.36s0-.08,0-.12V8.41L13.93,3l5.43,5.43ZM16,10.84H16l.48.09a6.76,6.76,0,0,1,2.46.89V8.58L13.93,3.52l-5,5v.06s0,.1,0,.15H9l.2,0a8.3,8.3,0,0,1,2.66.85s0,0,0-.05c0-.21,0-.43,0-.64s0-.27,0-.4c0-.35.14-.49.5-.49h1.14a.44.44,0,0,1,.4.17.42.42,0,0,1,.37-.17h1.26A.39.39,0,0,1,16,8.5q0,.62,0,1.24a.4.4,0,0,1-.18.36.46.46,0,0,1,.18.42C16,10.63,16,10.74,16,10.84Zm-2.15-.75a.35.35,0,0,1,.11.11A.33.33,0,0,1,14,10.1a.34.34,0,0,1-.11-.1A.35.35,0,0,1,13.83,10.1Zm1.27-.3h.5a.26.26,0,0,0,0,0q0-.61,0-1.23a.19.19,0,0,0,0-.06H14.24a.21.21,0,0,0,0,.08c0,.39,0,.79,0,1.18a.22.22,0,0,0,0,.08h.86Zm-2.81,0h1.24a.22.22,0,0,0,.1,0,.23.23,0,0,0,0-.08q0-.58,0-1.16a.29.29,0,0,0,0-.1H12.28s0,0,0,.11,0,.26,0,.4,0,.43,0,.65A.48.48,0,0,0,12.3,9.79Z"/><path class="cls-1" d="M20.16,8.54a1.1,1.1,0,0,1-.74-.29c-.2-.18-.4-.38-.59-.58l-.23-.23L13.93,2.76l-.07.07-5.3,5.3A1.21,1.21,0,0,1,8,8.5,1.07,1.07,0,0,1,6.91,6.77L7,6.62l0,0L13.39.28l.1-.1a.64.64,0,0,1,.91,0l.33.33L16,1.83l4.83,4.83a1.07,1.07,0,0,1-.71,1.88ZM13.9,2.23l.2.19.07.06L19.1,7.41c.18.19.38.38.57.56a.72.72,0,0,0,.69.17.69.69,0,0,0,.47-.51.7.7,0,0,0-.23-.71L15.77,2.09,14.47.78,14.15.47a.27.27,0,0,0-.41,0l-.08.07,0,0L7.31,6.89,7.19,7A.7.7,0,0,0,7.9,8.14a.86.86,0,0,0,.41-.26l5.3-5.3.11-.12Z"/><path class="cls-1" d="M2.52,18.05h0L.69,18H.55A.54.54,0,0,1,0,17.37c0-.23,0-.46,0-.7v-.3c0-1,.05-2.05.16-3.27A29.89,29.89,0,0,1,.68,9.46l0-.13a.51.51,0,0,1,.56-.45l1,0h.19l.79,0a.55.55,0,0,1,.4.18.53.53,0,0,1,.1.41c0,.25-.06.5-.1.75l-.06.45-.22,1.74c-.07.57-.14,1.19-.2,2a20.57,20.57,0,0,0-.1,3,.56.56,0,0,1-.15.44A.53.53,0,0,1,2.52,18.05ZM.37,16.37v.3c0,.23,0,.46,0,.69s0,.21.22.23H.7l1.8.08a.2.2,0,0,0,.15,0,.21.21,0,0,0,0-.16,20.83,20.83,0,0,1,.1-3c.07-.77.13-1.39.21-2l.22-1.74.06-.45c0-.25.07-.49.1-.74a.19.19,0,0,0,0-.14.22.22,0,0,0-.14,0l-.78,0H2.26l-1,0c-.12,0-.15,0-.19.15l0,.13a29.55,29.55,0,0,0-.51,3.59C.42,14.34.37,15.4.37,16.37Z"/></g></g></svg>