<svg xmlns="http://www.w3.org/2000/svg" viewBox="0 0 44.15 32.29"><title>Asset 6</title><g id="Layer_2" data-name="Layer 2"><g id="CHANNEL_PARTNER" data-name="CHANNEL PARTNER"><path d="M22.34,31.82a2,2,0,0,1-.36,0,4,4,0,0,1-2.25-1.73.23.23,0,0,1,0-.15c.55-4.11-2.73-4.64-2.87-4.66a.23.23,0,0,1-.19-.2A3.28,3.28,0,0,0,14,22.2a.22.22,0,0,1-.18-.22,2.87,2.87,0,0,0-2.6-2.74.23.23,0,0,1-.17-.34,1.34,1.34,0,0,0,0-1.15C10.75,17,9.68,16.4,8,16a4.08,4.08,0,0,0-4.23,1.16,5.06,5.06,0,0,0-1,1.89.22.22,0,0,1-.24.17A2.83,2.83,0,0,1,.35,18.3,1.78,1.78,0,0,1,0,17V6A1.87,1.87,0,0,1,.55,4.4c.65-.51,1.9-.33,4.13.21C8,5.41,9.6,3.49,9.62,3.47l0,0C12.57.81,15.18-.33,17.39.08A4.72,4.72,0,0,1,20.6,2.37a.23.23,0,0,1-.09.3s-2.12,1.13-5.4,3.08C12,7.6,12.81,9.56,12.85,9.64a.23.23,0,0,1,0,.08s.09,1.19,1.93,3.35c1.45,1.71,4.47,0,6.67-1.17.51-.28,1-.55,1.4-.74,2.19-1,3.28.17,3.4.32.45.45,8.53,8.49,8.94,8.94a1.63,1.63,0,0,1,.45,1.19,2.25,2.25,0,0,1-.91,1.52,1.92,1.92,0,0,1-2.51.22l0,0a42,42,0,0,0-3.31-3.23l-.2-.12a1,1,0,0,0,0,.17l3.35,3.72s.77.9-.49,2.32a1.93,1.93,0,0,1-2.74.26h0c-1.2-1.18-3.62-3.5-4.2-3.87l-.17-.09a1,1,0,0,0,0,.23c.29.27,1.93,1.79,3.36,3.19a2,2,0,0,1,.74,1.63,1.78,1.78,0,0,1-.84,1.18,2.1,2.1,0,0,1-2.66.31l0,0s-2.1-2.22-3.34-3.23a4.19,4.19,0,0,0-.36-.27l.06.12,2.35,2.58a1.81,1.81,0,0,1,0,3.07A2.27,2.27,0,0,1,22.34,31.82Zm-2.18-1.93a3.44,3.44,0,0,0,1.9,1.46,1.75,1.75,0,0,0,1.42-.42h0a1.65,1.65,0,0,0,.67-1.09,1.66,1.66,0,0,0-.7-1.29l0,0-2.37-2.61,0,0c-.22-.41-.24-.7-.07-.84s.57,0,1,.4c1.21,1,3.13,3,3.36,3.24a1.65,1.65,0,0,0,2.08-.28l.06,0a1.37,1.37,0,0,0,.64-.87,1.55,1.55,0,0,0-.61-1.24C26,24.72,24.18,23,24.16,23a.22.22,0,0,1-.06-.1c-.06-.18-.16-.61.09-.81s.59,0,.7.09c.75.48,4,3.69,4.26,3.92a1.5,1.5,0,0,0,2.12-.22c1-1.1.51-1.7.49-1.72l-3.38-3.76a.23.23,0,0,1,0-.08c-.06-.17-.17-.57.08-.76s.62.05.76.14A40.21,40.21,0,0,1,32.54,23a1.47,1.47,0,0,0,1.92-.22,1.84,1.84,0,0,0,.75-1.21,1.18,1.18,0,0,0-.34-.86c-.41-.45-8.85-8.85-8.93-8.94l0,0s-.93-1.11-2.87-.2c-.39.18-.87.45-1.37.72-2.34,1.29-5.55,3.05-7.23,1.06s-2-3.34-2-3.58-.75-2.5,2.45-4.41c2.7-1.61,4.6-2.65,5.21-3A4.33,4.33,0,0,0,17.3.52C15.24.15,12.77,1.24,10,3.77,9.78,4,8,5.88,4.57,5c-2-.48-3.24-.68-3.74-.29C.58,5,.47,5.33.47,6V17a.22.22,0,0,1,0,0,1.32,1.32,0,0,0,.25,1,2.29,2.29,0,0,0,1.64.74,4.66,4.66,0,0,1,5.75-3.2c1.85.41,3,1.09,3.41,2a1.8,1.8,0,0,1,.07,1.26,3.27,3.27,0,0,1,2.7,2.95,3.69,3.69,0,0,1,2.79,3.05C17.81,25,20.64,26,20.16,29.89Z"/><path d="M39.05,18.69c-2,0-2.6-.88-2.71-1.1-.57-.56-7.62-7.47-8.81-8.9a2.41,2.41,0,0,0-2.85-.42l-6.49,3.44a2.83,2.83,0,0,1-3.24-1,2.43,2.43,0,0,1,.29-3.52l0,0c.09,0,8.53-4.9,11.12-6.41a3.19,3.19,0,0,1,4.07.27c.19.15,2.71,2.23,4.27,3.53a3.43,3.43,0,0,0,2.61,1c.14,0,1.42-.43,3.84-1a2.52,2.52,0,0,1,2.15.29,2.28,2.28,0,0,1,.82,1.58h0c0,.06,0,5.69,0,8.66,0,1.42-.23,2.34-.73,2.73a.86.86,0,0,1-.6.19,10.68,10.68,0,0,1-3.19.55ZM26,7.52a2.38,2.38,0,0,1,1.9.88c1.21,1.44,8.73,8.81,8.81,8.89a.22.22,0,0,1,0,.07s.51,1,2.86.85a9.42,9.42,0,0,0,3.07-.52.23.23,0,0,1,.17,0h0a.41.41,0,0,0,.32-.11c.21-.18.57-.72.55-2.36,0-2.92,0-8.41,0-8.66a1.84,1.84,0,0,0-.64-1.24,2.1,2.1,0,0,0-1.77-.21c-2.53.58-3.81,1-3.82,1h0c-.05,0-1.32.28-3-1.14S30.19,1.42,30.17,1.4l0,0c-.05-.06-1.34-1.46-3.52-.19C24.1,2.65,16,7.3,15.52,7.58a2,2,0,0,0-.24,2.87,2.38,2.38,0,0,0,2.7.86l6.48-3.44A3.66,3.66,0,0,1,26,7.52Z"/><path d="M14.94,32.29a3.21,3.21,0,0,1-2.1-.76c-.82-.72-.47-2-.18-2.69a2.94,2.94,0,0,1-2.78-.68,2.39,2.39,0,0,1-.2-2.23,2.56,2.56,0,0,1-2.48-.56A2.24,2.24,0,0,1,7,22.89a3.53,3.53,0,0,1-2.64-.4,1.73,1.73,0,0,1-.53-1.31A4.15,4.15,0,0,1,5,18.3a3,3,0,0,1,4-.47,2.33,2.33,0,0,1,.87,2.42,2.61,2.61,0,0,1,2.19.57,2.37,2.37,0,0,1,.71,2.44,2.66,2.66,0,0,1,2.22.63,2.21,2.21,0,0,1,.62,2.38,2.15,2.15,0,0,1,2.25.73,2.22,2.22,0,0,1,.82,1.63,4.07,4.07,0,0,1-1.22,2.59A3.55,3.55,0,0,1,14.94,32.29Zm-1.85-4.05a.23.23,0,0,1,.2.34s-1,1.86-.15,2.62a3,3,0,0,0,4-.31,3.68,3.68,0,0,0,1.08-2.26,1.79,1.79,0,0,0-.68-1.32l0,0a1.66,1.66,0,0,0-2.2-.38.23.23,0,0,1-.33-.29c0-.06.77-1.51-.29-2.39a2.17,2.17,0,0,0-2.17-.44.23.23,0,0,1-.3-.29,2,2,0,0,0-2.57-2.72.23.23,0,0,1-.31-.27c0-.06.49-1.59-.6-2.3a2.54,2.54,0,0,0-3.41.42,3.67,3.67,0,0,0-1.12,2.54,1.33,1.33,0,0,0,.38,1c.64.56,2.17.35,2.7.21a.22.22,0,0,1,.24.34s-.89,1.45,0,2.36,2.43.32,2.44.32a.23.23,0,0,1,.29.31s-.67,1.44,0,2.19a2.65,2.65,0,0,0,2.76.39Z"/></g></g></svg>