<svg xmlns="http://www.w3.org/2000/svg" width="18.84751" height="22.83008" viewBox="0 0 18.84751 22.83008">
  
  <title>Asset 2</title>
  <g id="Layer_2" data-name="Layer 2">
    <g id="Layer_11" data-name="Layer 11">
      <path class="cls-1" d="M14.16232,0c-.006.03289.01948.036.04088.04585A.71693.71693,0,0,1,14.649.76833c-.00872.78392-.00281,1.568-.00283,2.352,0,.23079,0,.46158,0,.7a2.66054,2.66054,0,0,0,.43142.35464c.30742.24605.62392.48077.93709.71961.32286.24623.64705.49072.969.7381.21135.16239.419.32952.6297.4928.3012.23345.59792.47325.907.69582a.71027.71027,0,0,1,.1021,1.11512.63276.63276,0,0,1-.48115.175.83826.83826,0,0,1-.49741-.198c-.203-.16321-.41246-.31842-.61939-.47675a.23811.23811,0,0,0-.15824-.073v.21374q.00007,3.78334.00008,7.56668c0,.06685-.00176.13371-.001.20054a.69258.69258,0,0,1-.66077.69c-.06053.00415-.12147.00326-.18222.00326q-6.655.00019-13.31006.0005a1.59975,1.59975,0,0,1-.28944-.02489.67993.67993,0,0,1-.51182-.509,1.76445,1.76445,0,0,1-.03256-.34318q.00257-3.7651.00075-7.53021a.63375.63375,0,0,0-.01359-.21942,2.92022,2.92022,0,0,0-.36626.26885c-.11972.082-.22726.18152-.34482.26693a.70124.70124,0,0,1-.84586.05191.634.634,0,0,1-.30146-.47264.71324.71324,0,0,1,.31746-.70568c.23792-.177.46749-.36518.7025-.54615.211-.16248.42531-.32067.63655-.48284.30274-.23241.6037-.46713.906-.70008q.461-.35521.92312-.70895.39688-.30473.79376-.60945c.35584-.27276.71284-.544,1.06768-.81807.48843-.37723.97443-.7576,1.46306-1.13457q.82661-.63771,1.65589-1.272A5.27509,5.27509,0,0,1,9.19614.03131C9.2021.02815,9.20051.01075,9.20243,0h.43764c-.00857.042.02866.04921.052.06111a2.44046,2.44046,0,0,1,.39019.26457q.528.4139,1.059.82387c.30571.23588.61383.46863.92032.7035q.58824.45076,1.17749.9041a.50986.50986,0,0,0,.01718-.2042c.00086-.60651-.00156-1.213.00118-1.81952A.70459.70459,0,0,1,13.73989.0365c.02219-.00882.0473-.01021.05773-.0365Zm1.304,14.62385V6.23406q-1.01058-.7762-2.017-1.54947-1.00849-.77621-2.01574-1.554c-.67083-.51556-1.33642-1.03811-2.01594-1.54773L3.2909,6.3001v8.32375Z"/>
      <path class="cls-1" d="M6.139,22.83008c-.00126-.08473-.08337-.04916-.12324-.07486a2.1973,2.1973,0,0,1-.39135-.352c-.22128-.23268-.43326-.47417-.65258-.70876q-.68961-.73764-1.3827-1.472c-.17865-.19028-.36139-.37705-.53321-.57335a.79622.79622,0,0,1-.049-1.09173.81155.81155,0,0,1,.8528-.26346,1.3525,1.3525,0,0,1,.55336.39889q.27036.26794.53866.53794.23721.2375.47389.47551c.17522.17533.35265.34848.5256.526a2.55806,2.55806,0,0,0,.30134.28776h5.578a.948.948,0,0,0-.05952-.35183.28408.28408,0,0,0-.20261-.03254q-.96635-.00227-1.9327-.00085a1.10323,1.10323,0,0,1-.35907-.04453.80343.80343,0,0,1-.53807-.85351.78839.78839,0,0,1,.74851-.71317c.05455-.00313.10934-.003.164-.003q2.35207-.00026,4.70413-.00052a1.1044,1.1044,0,0,1,.4118.05859.79317.79317,0,0,1,.48581.55194c.25.8853.48963,1.77355.74122,2.65839a.84356.84356,0,0,1-.4964.99209c-.02547.00989-.06349.0035-.05883.04905Z"/>
      <path class="cls-1" d="M3.48883,18.04544A.70635.70635,0,0,1,4.615,17.3159c.22944.19777.43264.42139.64547.63567.22134.22285.44823.44017.67051.66209.1752.17491.34562.35462.52087.52949.16672.16635.33861.32752.5051.49409a4.82926,4.82926,0,0,1,.39377.426.69105.69105,0,0,1,.0922.24155H6.2631c-.12762-.12656-.26973-.26661-.41087-.40762-.50659-.50612-1.01565-1.00982-1.518-1.52016a.90905.90905,0,0,0-.79382-.31725A.1937.1937,0,0,1,3.48883,18.04544Z"/>
      <path class="cls-1" d="M5.21149,17.60392a.46751.46751,0,0,1,.25411-.19011.70264.70264,0,0,1,.77075.16228q.39772.39788.79621.795c.23615.23424.47571.46506.71086.70029.23088.231.45747.4662.68727.69825.08924.09012.1802.17874.27391.26417a1.36438,1.36438,0,0,1,.2128.269H7.737c-.00475-.00427-.01889-.01071-.02178-.02048a1.35453,1.35453,0,0,0-.40024-.5537q-1.03633-1.03628-2.07527-2.06995A.2308.2308,0,0,1,5.21149,17.60392Z"/>
    </g>
  </g>
</svg>
