<svg xmlns="http://www.w3.org/2000/svg" viewBox="0 0 43.81 37.96"><title>Asset 4</title><g id="Layer_2" data-name="Layer 2"><g id="PROPERTY_NEWS" data-name="PROPERTY NEWS"><path d="M23.23,11.68a.24.24,0,0,1-.15-.05L19.88,9.12a.24.24,0,0,1-.09-.19l0-2.22H18.59l0,1a.24.24,0,0,1-.4.19L16.48,6.43,9.9,11.62a.24.24,0,1,1-.3-.38l6.74-5.32a.24.24,0,0,1,.31,0l1.47,1.25,0-.72a.24.24,0,0,1,.24-.25H20a.24.24,0,0,1,.24.24l0,2.35,3.1,2.44a.24.24,0,0,1-.15.43Z"/><path d="M42.3,24.76H9.2a.24.24,0,0,1,0-.48H42.3a.24.24,0,1,1,0,.48Z"/><path d="M42.3,29H9.2a.24.24,0,0,1,0-.48H42.3a.24.24,0,1,1,0,.48Z"/><path d="M42.3,33.71H9.2a.24.24,0,1,1,0-.48H42.3a.24.24,0,1,1,0,.48Z"/><path d="M41.94,38H2.29a.24.24,0,0,1-.07-.47c2.06-.65,2.06-2.54,2.06-4.2V1.87A1.87,1.87,0,0,1,6.12,0H41.94a1.87,1.87,0,0,1,1.87,1.87V36.1A1.87,1.87,0,0,1,41.94,38Zm-38.6-.48h38.6a1.39,1.39,0,0,0,1.38-1.38V1.87A1.39,1.39,0,0,0,41.94.48H6.12A1.38,1.38,0,0,0,4.74,1.87V33.29C4.75,34.75,4.75,36.51,3.35,37.48Z"/><path d="M2.29,38a2.2,2.2,0,0,1-1.73-.67A2.64,2.64,0,0,1,0,35.41V5.69A1.87,1.87,0,0,1,1.88,3.82H4.5a.24.24,0,0,1,0,.48H1.88A1.39,1.39,0,0,0,.49,5.69V35.45A2.19,2.19,0,0,0,.92,37a1.75,1.75,0,0,0,1.37.51.24.24,0,0,1,0,.48Z"/><path d="M21.34,19.31H18a.24.24,0,0,1-.24-.24V15H15.36v4a.24.24,0,0,1-.24.24H11.64a.24.24,0,0,1-.24-.24V11.62a.24.24,0,0,1,.48,0v7.21h3v-4a.24.24,0,0,1,.24-.24H18a.24.24,0,0,1,.24.24v4H21.1V11.62a.24.24,0,0,1,.48,0v7.45A.24.24,0,0,1,21.34,19.31Z"/></g></g></svg>