<svg xmlns="http://www.w3.org/2000/svg" viewBox="0 0 44 43.46"><title>Asset 7</title><g id="Layer_2" data-name="Layer 2"><g id="INTERIOR_DESIGN" data-name="INTERIOR DESIGN"><path d="M.22,28.9A.22.22,0,0,1,0,28.68V28a.22.22,0,0,1,.44,0v.66A.22.22,0,0,1,.22,28.9Z"/><path d="M.22,26.88A.22.22,0,0,1,0,26.66V25.3a.22.22,0,1,1,.44,0v1.36A.22.22,0,0,1,.22,26.88Zm0-2.72A.22.22,0,0,1,0,23.94V22.58a.22.22,0,0,1,.44,0v1.36A.22.22,0,0,1,.22,24.16Zm0-2.72A.22.22,0,0,1,0,21.21V19.85a.22.22,0,1,1,.44,0v1.36A.22.22,0,0,1,.22,21.44Z"/><path d="M.22,18.71A.22.22,0,0,1,0,18.49v-.66a.22.22,0,0,1,.11-.19l.57-.34a.22.22,0,1,1,.22.38L.44,18v.54A.22.22,0,0,1,.22,18.71Z"/><path d="M1.93,17a.22.22,0,0,1-.11-.41L3,16a.22.22,0,0,1,.22.38L2,17A.22.22,0,0,1,1.93,17Zm2.28-1.34a.22.22,0,0,1-.11-.41l1.14-.67a.22.22,0,0,1,.22.38l-1.14.67A.22.22,0,0,1,4.21,15.71Zm2.28-1.34A.22.22,0,0,1,6.37,14l1.14-.67a.22.22,0,0,1,.22.38l-1.14.67A.22.22,0,0,1,6.48,14.38ZM8.76,13a.22.22,0,0,1-.11-.41L9.78,12a.22.22,0,1,1,.22.38L8.87,13A.22.22,0,0,1,8.76,13ZM11,11.71a.22.22,0,0,1-.11-.41l1.14-.67a.22.22,0,0,1,.22.38l-1.14.67A.22.22,0,0,1,11,11.71Zm2.28-1.34A.22.22,0,0,1,13.2,10l1.14-.67a.22.22,0,1,1,.22.38l-1.14.67A.22.22,0,0,1,13.31,10.37ZM15.58,9a.22.22,0,0,1-.11-.41L16.61,8a.22.22,0,1,1,.22.38L15.69,9A.22.22,0,0,1,15.58,9ZM17.86,7.7a.22.22,0,0,1-.11-.41l1.14-.67a.22.22,0,1,1,.22.38L18,7.67A.22.22,0,0,1,17.86,7.7Z"/><path d="M20.13,6.36A.22.22,0,0,1,20,6l.57-.34a.22.22,0,0,1,.22,0l.57.33a.22.22,0,0,1-.22.38l-.46-.27-.46.27A.22.22,0,0,1,20.13,6.36Z"/><path d="M25.92,9.06a.22.22,0,0,1-.11,0l-1.16-.68A.22.22,0,0,1,24.87,8L26,8.65a.22.22,0,0,1-.11.41ZM23.6,7.71a.22.22,0,0,1-.11,0L22.33,7a.22.22,0,0,1,.22-.38l1.16.68a.22.22,0,0,1-.11.41Z"/><path d="M27.66,10.07a.22.22,0,0,1-.11,0L27,9.71a.22.22,0,0,1,.22-.38l.57.33a.22.22,0,0,1-.11.41Z"/><path d="M36.59,15.35l-.1,0L35.9,15a.22.22,0,1,1,.21-.39l.59.31a.22.22,0,0,1-.1.42Z"/><path d="M37.88,16.69a.22.22,0,0,1-.22-.22v-.53l-.47-.25a.22.22,0,1,1,.21-.39l.59.31a.22.22,0,0,1,.12.2v.66A.22.22,0,0,1,37.88,16.69Z"/><path d="M37.88,26.3a.22.22,0,0,1-.22-.22v-1.2a.22.22,0,0,1,.44,0v1.2A.22.22,0,0,1,37.88,26.3Zm0-2.4a.22.22,0,0,1-.22-.22v-1.2a.22.22,0,0,1,.44,0v1.2A.22.22,0,0,1,37.88,23.9Zm0-2.4a.22.22,0,0,1-.22-.22v-1.2a.22.22,0,0,1,.44,0v1.2A.22.22,0,0,1,37.88,21.5Zm0-2.4a.22.22,0,0,1-.22-.22v-1.2a.22.22,0,0,1,.44,0v1.2A.22.22,0,0,1,37.88,19.09Z"/><path d="M37.88,28.17a.22.22,0,0,1-.22-.22v-.66a.22.22,0,0,1,.44,0v.66A.22.22,0,0,1,37.88,28.17Z"/><path d="M20.89,17.06a.22.22,0,0,1-.22-.22v-.66a.22.22,0,0,1,.22-.22.22.22,0,0,1,.22.22v.66a.22.22,0,0,1-.22.22Z"/><path d="M20.85,15a.22.22,0,0,1-.22-.22l0-1.39a.22.22,0,1,1,.44,0l0,1.39a.22.22,0,0,1-.22.22Zm0-2.77a.22.22,0,0,1-.22-.22l0-1.39a.22.22,0,1,1,.44,0L21,12a.22.22,0,0,1-.22.22Zm0-2.77a.22.22,0,0,1-.22-.22l0-1.39a.22.22,0,0,1,.22-.22.22.22,0,0,1,.22.22l0,1.39a.22.22,0,0,1-.22.22Z"/><path d="M20.72,6.69a.22.22,0,0,1-.22-.22V5.81a.22.22,0,0,1,.44,0v.66a.22.22,0,0,1-.22.22Z"/><path d="M19,43.46a.22.22,0,0,1-.22-.22V40.85a.22.22,0,0,1,.11-.19l18.87-11a.22.22,0,0,1,.33.19v2.43a.22.22,0,0,1-.11.19l-18.87,11A.22.22,0,0,1,19,43.46ZM19.23,41v1.88l18.42-10.7V30.24Z"/><path d="M19,43.46a.22.22,0,0,1-.11,0L.11,32.66A.22.22,0,0,1,0,32.47V29.86a.22.22,0,0,1,.33-.19l18.79,11a.22.22,0,0,1,.11.19v2.39a.22.22,0,0,1-.22.22ZM.44,32.34,18.79,42.86V41L.44,30.24Z"/><path d="M.22,30.08a.22.22,0,0,1-.11-.41l9.67-5.42V12.09a.22.22,0,0,1,.33-.19L23.81,20l1.8-6.27a.22.22,0,0,1,.37-.09l4.18,4.25,13.2-13.3a.7.7,0,0,0,0-1l-3.06-3a.7.7,0,0,0-1,0l-13,13a.22.22,0,0,1-.31-.31l13-13a1.14,1.14,0,0,1,1.6,0l3.06,3a1.14,1.14,0,0,1,0,1.62L30.31,18.35a.22.22,0,0,1-.16.07h0a.22.22,0,0,1-.16-.07l-4.07-4.14-1.77,6.18a.22.22,0,0,1-.32.13l-13.61-8v11.9a.22.22,0,0,1-.11.19L.33,30A.22.22,0,0,1,.22,30.08Z"/><path d="M22.25,18.16a.22.22,0,0,1-.11,0L11,11.61a.22.22,0,1,1,.22-.38l11.11,6.52a.22.22,0,0,1-.11.41Z"/><path d="M28.71,35.42a.22.22,0,0,1-.11,0l-2.86-1.63a.22.22,0,0,1-.11-.19V26.34l-3.16-2v7.36a.22.22,0,0,1-.33.19L9.89,24.57a.22.22,0,0,1,.23-.38L22,31.34V24a.22.22,0,0,1,.34-.19L26,26a.22.22,0,0,1,.1.19v7.23l2.42,1.38V24a.22.22,0,0,1,.44,0V35.2a.22.22,0,0,1-.22.22Z"/><path d="M30,34.69a.22.22,0,0,1-.22-.22V22.54a.22.22,0,0,1,.44,0v2.9a.22.22,0,0,1,.22,0L38,29.66A.22.22,0,0,1,38,30l-7.91,4.61A.22.22,0,0,1,30,34.69Zm.22-8.87v8.26l7.24-4.22-7.24-4Z"/><path d="M15.11,37.32h0a.22.22,0,0,1-.21-.23L15,33.34a.22.22,0,0,1,.44,0l-.11,3.75A.22.22,0,0,1,15.11,37.32Z"/><path d="M18.61,35.42a.22.22,0,0,1-.22-.22v-4a.22.22,0,1,1,.44,0v4A.22.22,0,0,1,18.61,35.42Z"/><path d="M15.23,35a.22.22,0,0,1-.11,0L6.36,29.94a.22.22,0,0,1,.22-.38l8.64,5,3.27-2a.22.22,0,0,1,.23.38L15.34,35A.22.22,0,0,1,15.23,35Z"/><path d="M15.23,33.57a.22.22,0,0,1-.11,0L6.69,28.62v3.51a.22.22,0,0,1-.44,0V28.24a.22.22,0,0,1,0,0v0a.22.22,0,0,1,.09-.12h0L9.89,26a.22.22,0,0,1,.22,0l8.61,5a.22.22,0,0,1,0,.38l-3.38,2.17A.22.22,0,0,1,15.23,33.57ZM6.91,28.24l8.31,4.85,3-1.9L10,26.4Z"/><path d="M19.79,26.36l-.11,0-7.24-4a.22.22,0,0,1-.11-.19V17a.22.22,0,0,1,.33-.19l7.24,4.16a.22.22,0,0,1,.11.19v5a.22.22,0,0,1-.22.22Zm-7-4.32,6.8,3.73v-4.5l-6.8-3.9Z"/><path d="M41.09,7.4a.22.22,0,0,1-.16-.07L36.66,3A.22.22,0,1,1,37,2.68L41.25,7a.22.22,0,0,1-.16.38Z"/><path d="M41.9,6.59a.22.22,0,0,1-.16-.06L37.43,2.22a.22.22,0,0,1,.31-.31l4.31,4.31a.22.22,0,0,1-.16.38Z"/><path d="M43.77,4.43h0A4.6,4.6,0,0,1,39.52.23a.22.22,0,1,1,.44,0A4.1,4.1,0,0,0,43.8,4a.22.22,0,0,1,0,.44Z"/><path d="M28.77,17a.22.22,0,0,1-.16-.38L39.43,5.8,38.38,4.73,27.43,15.43a.22.22,0,1,1-.31-.32L38.23,4.26a.22.22,0,0,1,.31,0L39.9,5.65a.22.22,0,0,1,0,.31l-11,11A.22.22,0,0,1,28.77,17Z"/><path d="M23.94,20.55a.22.22,0,0,1-.07-.43L30.08,18a.22.22,0,0,1,.14.42L24,20.54Z"/><path d="M26.6,19.64a.22.22,0,0,1-.22-.21,1.51,1.51,0,0,0-.5-1.18A1.6,1.6,0,0,0,24.71,18a.22.22,0,0,1-.09-.43,2,2,0,0,1,1.53.31,1.92,1.92,0,0,1,.67,1.51.22.22,0,0,1-.21.23Z"/></g></g></svg>