<svg xmlns="http://www.w3.org/2000/svg" viewBox="0 0 43.99 44.03"><title>Asset 2</title><g id="Layer_2" data-name="Layer 2"><g id="legal_advisory" data-name="legal advisory"><circle cx="39.57" cy="4.42" r="1.1"/><path d="M39.57,7a2.58,2.58,0,1,1,2.58-2.58A2.58,2.58,0,0,1,39.57,7Zm0-4.63a2.05,2.05,0,1,0,2,2.05A2.05,2.05,0,0,0,39.57,2.37Z"/><path d="M39.57,8.84A4.42,4.42,0,1,1,44,4.42,4.43,4.43,0,0,1,39.57,8.84Zm0-8.31a3.89,3.89,0,1,0,3.89,3.89A3.89,3.89,0,0,0,39.57.53Z"/><path d="M31.82,5.78H29.37l1.44-1.44L29.62,3.06H31.8l1.37,1.37Zm-1.17-.53h.95l.82-.82-.84-.84h-.74l.71.76Z"/><rect x="32.69" y="4.16" width="6.88" height="0.53"/><path d="M10.37,27.08a.27.27,0,0,1-.27-.27V6.43a.27.27,0,0,1,.27-.27h4.3a.27.27,0,0,1,0,.53h-4V26.82A.27.27,0,0,1,10.37,27.08Z"/><rect x="10.11" y="35.81" width="0.53" height="0.66"/><path d="M32.57,39.53H10.68a2.57,2.57,0,0,1-2-.77A3.33,3.33,0,0,1,8,36.46a.27.27,0,0,1,.27-.24H29.79a.27.27,0,0,1,.26.24c0,.1.3,2.54,2.52,2.54a2.32,2.32,0,0,0,2.32-2.33V12.06H29.21a.27.27,0,0,1-.27-.27V6.69H16.58a.27.27,0,0,1,0-.53H29.21a.27.27,0,0,1,.27.27v5.1h5.67a.27.27,0,0,1,.27.27V36.68A2.88,2.88,0,0,1,32.57,39.53ZM8.51,36.74A2.64,2.64,0,0,0,9.1,38.4a2.06,2.06,0,0,0,1.58.59H30.86a3.8,3.8,0,0,1-1.3-2.25Z"/><path d="M18.88,12.94H14.67a.27.27,0,0,1,0-.53h4.21a.27.27,0,0,1,0,.53Z"/><path d="M30.63,13.61H28a.27.27,0,0,1,0-.53h2.66a.27.27,0,0,1,0,.53Z"/><path d="M30.85,16.22H16a.27.27,0,1,1,0-.53H30.85a.27.27,0,1,1,0,.53Z"/><path d="M30.63,17.86h-16a.27.27,0,0,1,0-.53h16a.27.27,0,0,1,0,.53Z"/><path d="M28,19.37H14.67a.27.27,0,0,1,0-.53H28a.27.27,0,0,1,0,.53Z"/><path d="M30.85,22.34H16a.27.27,0,1,1,0-.53H30.85a.27.27,0,0,1,0,.53Z"/><path d="M28,25H14.67a.27.27,0,0,1,0-.53H28A.27.27,0,0,1,28,25Z"/><path d="M30.85,23.49H14.67a.27.27,0,1,1,0-.53H30.85a.27.27,0,1,1,0,.53Z"/><path d="M25.8,28.28H24.33a.27.27,0,0,1,0-.53H25.8a.27.27,0,0,1,0,.53Z"/><path d="M30.45,29.34H24.33a.27.27,0,0,1,0-.53h6.12a.27.27,0,0,1,0,.53Z"/><path d="M28.59,30.32H24.33a.27.27,0,0,1,0-.53h4.26a.27.27,0,0,1,0,.53Z"/><path d="M18.88,33.33h-1a.27.27,0,0,1,0-.53h1a.27.27,0,0,1,0,.53Z"/><path d="M18.39,34a.27.27,0,0,1-.27-.27V32.22a.27.27,0,1,1,.53,0v1.51A.27.27,0,0,1,18.39,34Z"/><rect y="25" width="1.6" height="10.82" rx="0.36" ry="0.36"/><path d="M2.48,34.82H1.33V26H2.48a1,1,0,0,1,1,1v6.87A1,1,0,0,1,2.48,34.82Zm-.62-.53h.62a.47.47,0,0,0,.47-.47V26.95a.47.47,0,0,0-.47-.47H1.86Z"/><path d="M3.51,27.3l-.1-.52a4.87,4.87,0,0,0,2.51-1.64,1.09,1.09,0,0,1,.84-.4h3.62v.53H6.75a.56.56,0,0,0-.43.21A5.31,5.31,0,0,1,3.51,27.3Z"/><path d="M12.79,35.39H4.56c-.76,0-1.61-.53-1.61-1.29a.27.27,0,0,1,.53,0c0,.42.58.75,1.08.75h8.23a.64.64,0,0,0,0-1.29H9.44a.27.27,0,0,1,0-.53h4.71a.76.76,0,1,0,0-1.53H9.44a.27.27,0,0,1,0-.53h5.84a.88.88,0,0,0,0-1.75H9.42a.27.27,0,1,1,0-.53h4.84a.7.7,0,1,0,0-1.4H8a.27.27,0,0,1,0-.53h6.24a1.23,1.23,0,0,1,1,1.93h0a1.41,1.41,0,0,1,0,2.81H15.2a1.3,1.3,0,0,1-1,2.06h-.38a1.17,1.17,0,0,1-1,1.82Z"/><polygon points="29.3 6.25 35.41 11.7 29.21 11.79 29.3 6.25"/><path d="M6.23,9A.27.27,0,0,1,6,8.7V7.8a.27.27,0,1,1,.53,0v.9A.27.27,0,0,1,6.23,9Z"/><path d="M6.23,6.52A.27.27,0,0,1,6,6.25V5.51a.27.27,0,0,1,.53,0v.74A.27.27,0,0,1,6.23,6.52Z"/><path d="M8,7.34h-1a.27.27,0,1,1,0-.53H8a.27.27,0,0,1,0,.53Z"/><path d="M5.56,7.34H4.7a.27.27,0,1,1,0-.53h.86a.27.27,0,0,1,0,.53Z"/><path d="M35.32,44a.27.27,0,0,1-.27-.27v-.9a.27.27,0,0,1,.53,0v.9A.27.27,0,0,1,35.32,44Z"/><path d="M35.32,41.58a.27.27,0,0,1-.27-.27v-.74a.27.27,0,1,1,.53,0v.74A.27.27,0,0,1,35.32,41.58Z"/><path d="M37,42.4H36a.27.27,0,1,1,0-.53h1a.27.27,0,1,1,0,.53Z"/><path d="M34.65,42.4h-.86a.27.27,0,1,1,0-.53h.86a.27.27,0,1,1,0,.53Z"/><path d="M4.86,15.08H3.46a.27.27,0,0,1,0-.53H4.86a.27.27,0,0,1,0,.53Z"/><path d="M37.74,12.69h-.86a.27.27,0,1,1,0-.53h.86a.27.27,0,0,1,0,.53Z"/><path d="M43.39,14.68H41.53a.27.27,0,1,1,0-.53h1.86a.27.27,0,0,1,0,.53Z"/><path d="M42.46,15.75a.27.27,0,0,1-.27-.27V13.34a.27.27,0,1,1,.53,0v2.14A.27.27,0,0,1,42.46,15.75Z"/><path d="M38.56,33.24A1.51,1.51,0,0,1,37,31.73V17.87a1.51,1.51,0,0,1,3,0V31.73A1.51,1.51,0,0,1,38.56,33.24Zm0-16.36a1,1,0,0,0-1,1V31.73a1,1,0,0,0,2,0V17.87A1,1,0,0,0,38.56,16.89Z"/><path d="M38.56,38.19h0a.27.27,0,0,1-.21-.11c-.18-.26-1.73-2.54-1.12-3.7a1.37,1.37,0,0,1,1.34-.64,1.48,1.48,0,0,1,1.47.69c.59,1.19-1.07,3.41-1.26,3.66A.27.27,0,0,1,38.56,38.19Zm0-3.92c-.46,0-.75.12-.87.35-.31.59.31,1.94.88,2.84.61-.88,1.28-2.2,1-2.8C39.42,34.39,39.09,34.26,38.56,34.26Z"/><path d="M37.84,32.75s-.54.4,0,1.24h1.31a1.28,1.28,0,0,0,0-1.17S38.17,33.09,37.84,32.75Z"/><path d="M25.46,34.66H25.4a1.89,1.89,0,0,1-1.54-1.77,1.41,1.41,0,0,1,1.59-1.59,1.55,1.55,0,0,1,1.76,1.33,1.51,1.51,0,0,1,1-.17,1.63,1.63,0,0,1,1.08,1.08.27.27,0,1,1-.49.21c-.19-.45-.42-.7-.71-.77a1.3,1.3,0,0,0-1,.32.27.27,0,0,1-.44-.2c0-1.12-.68-1.27-1.27-1.27S24.4,32,24.4,32.89s1.08,1.24,1.12,1.25a.27.27,0,0,1-.06.53Z"/></g></g></svg>