<svg xmlns="http://www.w3.org/2000/svg" viewBox="0 0 12.07 23.37"><defs><style>.cls-1{fill:#e4002b;}.cls-2{fill:#666;}</style></defs><title>Asset 1</title><g id="Layer_2" data-name="Layer 2"><g id="Layer_6" data-name="Layer 6"><path class="cls-1" d="M7.17,11.41a.54.54,0,0,0,0-.08,1.17,1.17,0,1,0-2.35,0,.71.71,0,0,0,0,.09,6,6,0,1,0,2.34,0ZM10.69,16,8.11,17.78A.21.21,0,0,0,8,18l.86,3a.21.21,0,0,1-.32.23L6.17,19.43a.21.21,0,0,0-.24,0L3.51,21.19A.21.21,0,0,1,3.19,21l.86-3A.21.21,0,0,0,4,17.78L1.39,16a.21.21,0,0,1,.12-.38l3.09,0a.21.21,0,0,0,.2-.14l1-3a.21.21,0,0,1,.39,0l1,3a.21.21,0,0,0,.2.14l3.09,0A.21.21,0,0,1,10.69,16Z"/><path class="cls-2" d="M4,0V9.19a.14.14,0,0,0,0,.1l.49.49a.14.14,0,0,0,.1,0h2.8a.14.14,0,0,0,.1,0l.4-.4a.14.14,0,0,0,0-.1V0Z"/><path class="cls-2" d="M8.63,0V8.3l2.1-2.76V.37A.37.37,0,0,0,10.37,0Z"/><path class="cls-2" d="M3.42,0V8.3L1.31,5.54V.37A.37.37,0,0,1,1.68,0Z"/></g></g></svg>