<svg xmlns="http://www.w3.org/2000/svg" width="16.17185" height="22.91388" viewBox="0 0 16.17185 22.91388">
  
  <title>Asset 8</title>
  <g id="Layer_2" data-name="Layer 2">
    <g id="Layer_2-2" data-name="Layer 2">
      <path class="cls-1" d="M14.59521,20.6315h-3.874v-.54056h3.874a1.03723,1.03723,0,0,0,1.03608-1.03608V1.57664A1.03723,1.03723,0,0,0,14.59521.54056H1.57664A1.03723,1.03723,0,0,0,.54056,1.57664V19.05485a1.03723,1.03723,0,0,0,1.03608,1.03608H5.676v.54056H1.57664A1.57839,1.57839,0,0,1,0,19.05485V1.57664A1.57839,1.57839,0,0,1,1.57664,0H14.59521a1.57839,1.57839,0,0,1,1.57664,1.57664V19.05485A1.57839,1.57839,0,0,1,14.59521,20.6315Z"/>
      <path class="cls-1" d="M4.97769,6.98228a.18019.18019,0,0,1-.1274-.30759L8.03736,3.48762a.18012.18012,0,0,1,.2548,0l3.13076,3.13076a.18017.18017,0,0,1-.2548.2548L8.16476,3.86981,5.10508,6.92949A.1796.1796,0,0,1,4.97769,6.98228Z"/>
      <path class="cls-1" d="M10.2407,5.90115a.18014.18014,0,0,1-.18019-.18019V4.03927a.18019.18019,0,0,1,.36038,0V5.721A.18014.18014,0,0,1,10.2407,5.90115Z"/>
      <path class="cls-2" d="M6.37882,6.137l-.39712.39853V8.46458a.72923.72923,0,0,0,.72923.72923H7.72846V7.27509h.93181V9.17268H9.513a.88161.88161,0,0,0,.88161-.88161V6.453l-.397-.397V8.39137a.4322.4322,0,0,1-.4322.4322H9.03754V6.89781H7.30887V8.80668H6.724a.358.358,0,0,1-.35963-.35887C6.3666,7.71963,6.37229,6.137,6.37882,6.137Z"/>
      <g>
        <line class="cls-2" x1="3.66006" y1="10.52972" x2="12.72576" y2="10.52972"/>
        <path class="cls-2" d="M12.72576,10.70991H3.66006a.18019.18019,0,0,1,0-.36038h9.0657a.18019.18019,0,0,1,0,.36038Z"/>
      </g>
      <g>
        <line class="cls-2" x1="3.66006" y1="12.02753" x2="12.72576" y2="12.02753"/>
        <path class="cls-2" d="M12.72576,12.20772H3.66006a.18019.18019,0,0,1,0-.36038h9.0657a.18019.18019,0,0,1,0,.36038Z"/>
      </g>
      <path class="cls-1" d="M9.15579,20.6315a.27048.27048,0,0,1-.1852-.07338,1.16232,1.16232,0,0,0-1.58368.00528.27027.27027,0,0,1-.4393-.12793,1.21549,1.21549,0,0,0-1.3661-.94458.27082.27082,0,0,1-.28805-.37621,1.19615,1.19615,0,0,0,.07083-.96112,1.30426,1.30426,0,0,0-.66453-.62151.27037.27037,0,0,1-.02692-.49464,1.28128,1.28128,0,0,0,.729-.76,1.28387,1.28387,0,0,0-.15608-.91678A.27046.27046,0,0,1,5.588,14.97a.85388.85388,0,0,0,.752.05279,1.5926,1.5926,0,0,0,.65063-.92223.27032.27032,0,0,1,.46287-.114,1.24028,1.24028,0,0,0,1.6443.09748.27078.27078,0,0,1,.42575.17262c.15969.92874,1.213.91994,1.2585.9166a.285.285,0,0,1,.22823.11614.27046.27046,0,0,1,.02965.25392,1.49559,1.49559,0,0,0,.544,1.6004.27016.27016,0,0,1-.07549.46947c-.74125.25867-.53027,1.60937-.52807,1.6231a.27043.27043,0,0,1-.32888.30688c-.86055-.20324-1.22419.858-1.23923.90323a.27008.27008,0,0,1-.19022.17684A.26593.26593,0,0,1,9.15579,20.6315ZM5.92156,18.9484a1.71527,1.71527,0,0,1,1.41643.99244,1.63524,1.63524,0,0,1,1.70985-.00475,1.6469,1.6469,0,0,1,1.36628-.96024,2.0593,2.0593,0,0,1,.55446-1.6736,1.96965,1.96965,0,0,1-.52869-1.61412,1.69553,1.69553,0,0,1-1.34613-.97819,1.70757,1.70757,0,0,1-1.7263-.08059,1.79092,1.79092,0,0,1-.7965.88229,1.211,1.211,0,0,1-.64438.11121,1.52684,1.52684,0,0,1-.6069,1.64826,1.65535,1.65535,0,0,1,.54276.67254A1.55953,1.55953,0,0,1,5.92156,18.9484Z"/>
      <path class="cls-1" d="M8.19854,19.2463a1.92576,1.92576,0,1,1,1.92576-1.92575A1.92789,1.92789,0,0,1,8.19854,19.2463Zm0-3.49114a1.56538,1.56538,0,1,0,1.56538,1.56539A1.56716,1.56716,0,0,0,8.19854,15.75517Z"/>
      <polygon class="cls-2" points="6.171 20.159 6.171 22.914 8.229 21.81 10.181 22.914 10.181 20.098 9.813 20.782 9.798 22.261 8.221 21.352 6.562 22.231 6.554 20.774 6.171 20.159"/>
    </g>
  </g>
</svg>
