<svg xmlns="http://www.w3.org/2000/svg" viewBox="0 0 44 44.18"><title>Asset 1</title><g id="Layer_2" data-name="Layer 2"><g id="Layer_9" data-name="Layer 9"><path d="M2,4A2,2,0,1,1,4,2,2,2,0,0,1,2,4ZM2,.6A1.38,1.38,0,1,0,3.35,2,1.38,1.38,0,0,0,2,.6Z"/><path d="M33.42,17A2.59,2.59,0,1,1,36,14.41,2.59,2.59,0,0,1,33.42,17Zm0-4.58a2,2,0,1,0,2,2A2,2,0,0,0,33.42,12.42Z"/><path d="M33.42,32.35a3.71,3.71,0,1,1,3.71-3.71A3.71,3.71,0,0,1,33.42,32.35Zm0-6.81a3.11,3.11,0,1,0,3.11,3.11A3.11,3.11,0,0,0,33.42,25.53Z"/><path d="M30.33,9.53a2,2,0,1,1,2-2A2,2,0,0,1,30.33,9.53Zm0-3.35A1.38,1.38,0,1,0,31.7,7.55,1.38,1.38,0,0,0,30.33,6.18Z"/><path d="M14.73,35.61a2.47,2.47,0,1,1,2.47-2.47A2.48,2.48,0,0,1,14.73,35.61Zm0-4.35a1.87,1.87,0,1,0,1.87,1.87A1.88,1.88,0,0,0,14.73,31.26Z"/><path d="M14.73,1.89A12.53,12.53,0,1,1,2.21,14.41,12.54,12.54,0,0,1,14.73,1.89m0-.6A13.13,13.13,0,1,0,27.86,14.41,13.13,13.13,0,0,0,14.73,1.29Z"/><path d="M2.47,41a1.62,1.62,0,1,1,1.62-1.62A1.62,1.62,0,0,1,2.47,41Zm0-2.63a1,1,0,1,0,1,1A1,1,0,0,0,2.47,38.36Z"/><path d="M42.38,44.18A1.62,1.62,0,1,1,44,42.56,1.62,1.62,0,0,1,42.38,44.18Zm0-2.63a1,1,0,1,0,1,1A1,1,0,0,0,42.38,41.54Z"/><path d="M14.13,2.5v24c-1.28-1.06-3.63-4.06-3.63-11.75s2.33-11,3.63-12.21m.6-1.21S9.9,3.55,9.9,14.71s4.83,12.83,4.83,12.83V1.29Z"/><path d="M14.67,1.9C15.29,2.17,19,4.17,19,14.41c0,9.61-3.69,12.14-4.35,12.52a8.4,8.4,0,0,1-4-1.54c-2.79-2-4.27-5.68-4.27-10.63,0-11.22,7.26-12.7,8.36-12.86m.07-.61s-9,.86-9,13.47,9,12.78,9,12.78,4.82-2,4.82-13.13c0-11.87-4.82-13.13-4.82-13.13Z"/><path d="M14.73,27.57a.3.3,0,0,1,0-.6c.35-.05,8.52-1.36,8.52-12.28S15,2,14.68,1.95a.3.3,0,0,1,.12-.59c.09,0,9,1.9,9,13.34s-8.94,12.86-9,12.87Z"/><path d="M25.78,8.59H3.65a.3.3,0,1,1,0-.6H25.78a.3.3,0,1,1,0,.6Z"/><path d="M27.55,14.71H2a.3.3,0,0,1,0-.6H27.55a.3.3,0,1,1,0,.6Z"/><path d="M25.78,20.9H3.43a.3.3,0,1,1,0-.6H25.78a.3.3,0,1,1,0,.6Z"/><path d="M31.13,14.71H27.86a.3.3,0,1,1,0-.6h3.27a.3.3,0,1,1,0,.6Z"/><path d="M33.42,23.78a.3.3,0,0,1-.3-.3V16.7a.3.3,0,0,1,.6,0v6.78A.3.3,0,0,1,33.42,23.78Z"/><path d="M33.42,39.35h0a.3.3,0,0,1-.21-.14c-2.61-4.28-1.46-7.43-1.41-7.56a.3.3,0,0,1,.56.21s-1,2.85,1.16,6.69c.51-.67,1.6-2.63,1.24-6.77a.3.3,0,1,1,.6-.05c.5,5.66-1.61,7.48-1.7,7.56A.3.3,0,0,1,33.42,39.35Z"/><path d="M38.91,41a.3.3,0,0,1-.3-.3V36.18a3.36,3.36,0,0,0-3.35-3.35.3.3,0,1,1,0-.6,4,4,0,0,1,4,4V40.7A.3.3,0,0,1,38.91,41Z"/><path d="M27.86,40.74a.3.3,0,0,1-.3-.3V36.18a4,4,0,0,1,4-4,.3.3,0,0,1,0,.6,3.36,3.36,0,0,0-3.35,3.35v4.26A.3.3,0,0,1,27.86,40.74Z"/><rect x="14.43" y="27.54" width="0.6" height="3.42"/><rect x="16.9" y="33.01" width="6.9" height="0.6"/><path d="M33.33,42.86A9.63,9.63,0,1,1,43,33.23,9.64,9.64,0,0,1,33.33,42.86Zm0-18.66a9,9,0,1,0,9,9A9,9,0,0,0,33.33,24.2Z"/><path d="M34.11,1.59h-3a.3.3,0,0,1,0-.6h3a.3.3,0,1,1,0,.6Z"/><path d="M42.67,1.59h-7a.3.3,0,0,1,0-.6h7a.3.3,0,1,1,0,.6Z"/><path d="M39.57,3.45H34.11a.3.3,0,0,1,0-.6h5.45a.3.3,0,0,1,0,.6Z"/><path d="M42.67,3.45H40.52a.3.3,0,0,1,0-.6h2.15a.3.3,0,1,1,0,.6Z"/><path d="M38.61,11.5a.3.3,0,0,1-.3-.3V6.8a.3.3,0,1,1,.6,0v4.4A.3.3,0,0,1,38.61,11.5Z"/><path d="M38.61,13.91a.3.3,0,0,1-.3-.3V12.55a.3.3,0,0,1,.6,0v1.05A.3.3,0,0,1,38.61,13.91Z"/><path d="M7.75,40.92a.3.3,0,0,1-.3-.3v-4.4a.3.3,0,1,1,.6,0v4.4A.3.3,0,0,1,7.75,40.92Z"/><path d="M7.75,43.32a.3.3,0,0,1-.3-.3V42a.3.3,0,0,1,.6,0V43A.3.3,0,0,1,7.75,43.32Z"/><path d="M40.07,8.59a.3.3,0,0,1-.3-.3V7a.3.3,0,0,1,.6,0V8.29A.3.3,0,0,1,40.07,8.59Z"/><path d="M40.07,14.21a.3.3,0,0,1-.3-.3V9.7a.3.3,0,0,1,.6,0v4.2A.3.3,0,0,1,40.07,14.21Z"/><path d="M22.43,41H18a.3.3,0,0,1,0-.6h4.4a.3.3,0,1,1,0,.6Z"/><path d="M16.68,41H15.63a.3.3,0,0,1,0-.6h1.05a.3.3,0,0,1,0,.6Z"/><path d="M22.23,42.45H20.95a.3.3,0,1,1,0-.6h1.29a.3.3,0,0,1,0,.6Z"/><path d="M19.53,42.45h-4.2a.3.3,0,1,1,0-.6h4.2a.3.3,0,1,1,0,.6Z"/><path d="M29.69,19.86a.3.3,0,0,1-.3-.3V16a.3.3,0,1,1,.6,0v3.55A.3.3,0,0,1,29.69,19.86Z"/><path d="M29.69,23a.3.3,0,0,1-.3-.3V20.86a.3.3,0,1,1,.6,0v1.85A.3.3,0,0,1,29.69,23Z"/><path d="M41.89,22.28a.3.3,0,0,1-.21-.09L39.48,20a.3.3,0,0,1,.42-.42l2.2,2.2a.3.3,0,0,1-.21.51Z"/><path d="M38.14,18.53a.3.3,0,0,1-.21-.09L36.4,16.92a.3.3,0,1,1,.42-.42L38.35,18a.3.3,0,0,1-.21.51Z"/><path d="M36.69,21.71a.3.3,0,0,1-.21-.51l1.78-1.78a.3.3,0,1,1,.42.42L36.9,21.62A.3.3,0,0,1,36.69,21.71Z"/><path d="M39.85,18.54a.3.3,0,0,1-.21-.51l1.74-1.74a.3.3,0,1,1,.42.42l-1.74,1.74A.3.3,0,0,1,39.85,18.54Z"/><path d="M7.75,33.61a.3.3,0,0,1-.21-.09l-2.2-2.2a.3.3,0,0,1,.42-.42L8,33.1a.3.3,0,0,1-.21.51Z"/><path d="M4,29.86a.3.3,0,0,1-.21-.09L2.26,28.25a.3.3,0,0,1,.42-.42l1.53,1.53a.3.3,0,0,1-.21.51Z"/><path d="M2.55,33a.3.3,0,0,1-.21-.51l1.78-1.78a.3.3,0,1,1,.42.42L2.76,33A.3.3,0,0,1,2.55,33Z"/><path d="M5.71,29.87a.3.3,0,0,1-.21-.51l1.74-1.74a.3.3,0,0,1,.42.42L5.93,29.79A.3.3,0,0,1,5.71,29.87Z"/></g></g></svg>